<?xml version="1.0" encoding="UTF-8"?><svg xmlns="http://www.w3.org/2000/svg" viewBox="0 0 205.74 198.86"><defs><style>.d{fill:#03254c;}</style></defs><g id="a"/><g id="b"><g id="c"><g><path class="d" d="M205.12,29.4C201.65,11.93,187.22,.05,169.39,.02c-22.14-.03-44.28,0-66.42,0-22.07,0-44.14-.01-66.21,0C15.76,.03,.03,15.7,.02,36.66,0,78.51,0,120.36,.02,162.21c.01,20.84,15.74,36.62,36.54,36.63,44.21,.03,88.42,.03,132.64,0,20.71-.01,36.51-15.76,36.52-36.43,.03-41.99,0-83.99,.02-125.98,0-2.37-.16-4.72-.62-7.03Zm-79.31,116.17c-4.64-.1-9.29-.1-13.93,0-1.65,.04-2.42-.59-2.95-2.1-2.38-6.79-4.88-13.55-7.27-20.34-.41-1.17-.94-1.64-2.25-1.63-9.14,.06-18.29,.07-27.43,0-1.38-.01-1.8,.54-2.2,1.7-2.29,6.75-4.71,13.45-6.95,20.22-.56,1.68-1.39,2.19-3.09,2.15-3.93-.11-7.86-.03-11.78-.04-2.65,0-2.78-.17-1.94-2.67,6.62-19.66,13.25-39.31,19.88-58.97,2.32-6.89,4.64-13.78,6.98-20.66,.95-2.79,1.61-5.63,1.67-8.58,.03-1.29,.47-1.75,1.77-1.71,3.07,.08,6.14,.02,9.21,.02,2.93,0,5.86,.1,8.78-.04,1.6-.07,2.22,.55,2.71,1.99,8.09,23.68,16.22,47.34,24.35,71,1.99,5.8,3.95,11.61,6.01,17.38,.6,1.69,.33,2.3-1.58,2.26Zm27.73-2.01c0,1.47-.48,2.03-1.98,2.01-4.35-.07-8.71-.09-13.06,0-1.77,.04-2.16-.72-2.15-2.31,.05-10.7,.02-21.4,.02-32.11,0-10.56,.05-21.12-.04-31.68-.02-1.99,.58-2.6,2.55-2.54,4.21,.14,8.42,.08,12.63,.02,1.45-.02,2.03,.45,2.03,1.96-.03,21.55-.03,43.09,0,64.64Zm-8.76-73.44c-6.09-.03-10.14-4.13-10.12-10.26,.02-6.19,4.28-10.34,10.6-10.31,5.99,.03,9.98,4.19,9.97,10.42,0,6.16-4.15,10.18-10.45,10.15Z"/><path class="d" d="M81.4,80.89c-2.36,7.84-4.75,15.68-7.07,23.54-.16,.53-1.23,1.71,.62,1.7,7.49-.02,14.98,0,22.66,0-4.02-12.93-7.98-25.68-12.11-38.94-1.46,4.87-2.77,9.29-4.1,13.71Z"/></g></g></g></svg>