<?xml version="1.0" encoding="UTF-8"?><svg id="Layer_2" xmlns="http://www.w3.org/2000/svg" viewBox="0 0 186.92 222.84"><defs><style>.cls-1{fill:#1167aa;}</style></defs><g id="Layer_1-2"><g><path class="cls-1" d="m186.92,162.72c-4.95,16.05-13.73,31.93-24.77,44.6-5.26,6.04-11.63,11.95-19.5,14.22-8.34,2.4-16-.34-23.93-2.88-8.56-2.73-17.24-5.67-26.35-4.39-8.92,1.25-17.07,5.51-25.75,7.74-17.66,4.53-31.5-10.42-40.48-23.67C6.74,169.74-5.52,132.99,2.48,98.45c3.54-15.26,11.24-29.56,24.19-38.82,13.95-9.98,30.65-9.33,46.56-5.22,9.16,2.36,18.76,6.4,28.32,4.36,9.88-2.11,19.17-6.49,29.23-7.9,9.87-1.39,20.03-.04,29.07,4.22,8.33,3.93,14.8,10.37,20.67,17.32-11.61,10.18-21.55,21.57-23.66,37.4-2.04,15.27,3.3,30.11,13.3,41.6,4.54,5.21,9.95,9.2,16.77,11.31Z"/><path class="cls-1" d="m135.69,0c1.05,3.07.95,6.17.58,9.22-1.81,15.02-8.76,27.23-20.41,36.83-5.41,4.46-11.61,6.89-18.56,7.51-1.79.16-3.57.38-5.37.57.02-25.89,13.07-48.13,43.75-54.12Z"/></g></g></svg>