<?xml version="1.0" encoding="UTF-8"?><svg xmlns="http://www.w3.org/2000/svg" viewBox="0 0 182.71 207.18"><defs><style>.d{fill:#03254c;}</style></defs><g id="a"/><g id="b"><g id="c"><path class="d" d="M179.68,.02c-58.87,0-117.74,0-176.61,0-.34,0-.68,.03-1.01,0C.41-.13-.11,.78,.02,2.24c.4,4.69,.82,9.38,1.23,14.08,.62,6.97,1.25,13.94,1.87,20.91,.6,6.7,1.15,13.41,1.78,20.1,.64,6.83,1.24,13.67,1.82,20.5,.59,6.9,1.23,13.8,1.83,20.71,.72,8.24,1.48,16.48,2.19,24.73,.6,6.9,1.24,13.8,1.82,20.71,.59,7.04,1.21,14.08,1.87,21.11,.6,6.43,1.14,12.87,1.71,19.3,.17,1.91,1.03,3.16,3.08,3.69,5.21,1.36,10.36,2.97,15.57,4.32,18.62,4.81,36.82,11.24,55.77,14.79h1.62c3.83-.68,7.68-1.19,11.43-2.35,3.86-1.19,7.77-2.22,11.66-3.3,16.09-4.47,32.17-8.96,48.26-13.46,2.04-.57,2.94-1.78,3.07-3.69,.34-4.97,.91-9.92,1.3-14.88,.54-6.84,1.18-13.67,1.78-20.51,.59-6.84,1.24-13.67,1.85-20.5,.72-8.24,1.44-16.49,2.17-24.73,.75-8.44,1.54-16.88,2.27-25.33,.72-8.24,1.44-16.49,2.17-24.73,.75-8.44,1.53-16.88,2.27-25.33,.73-8.38,1.49-16.75,2.21-25.13,.26-2.95,.08-3.22-2.95-3.22Zm-31.16,40.47c-1.75,18.9-3.38,37.82-5.06,56.73-1.62,18.24-3.3,36.47-4.86,54.72-.18,2.13-.97,3.01-3.06,3.57-14.16,3.8-28.27,7.75-42.39,11.68-1.21,.34-2.31,.37-3.54,.03-14.38-4.02-28.76-8.02-43.16-11.92-1.61-.44-2.1-1.19-2.23-2.73-.81-9.73-1.7-19.45-2.56-29.17-.12-1.34-.24-2.68-.38-4.02-.09-.86,.04-1.41,1.12-1.41,6.87,.03,13.74,.03,20.61,0,1.36,0,1.22,.92,1.3,1.79,.46,5.16,.97,10.32,1.36,15.49,.1,1.35,.61,1.95,1.94,2.3,7.48,1.95,14.94,3.99,22.4,6.02,.95,.26,1.83,.22,2.77-.04,7.4-2.01,14.79-4.03,22.21-5.95,1.37-.35,2-.94,2.15-2.38,.98-9.51,2-19.01,3.09-28.51,.16-1.37-.41-1.39-1.41-1.39-5.79,.03-11.58,.02-17.38,.04-19.6,.05-39.2,.09-58.79,.2-1.83,.01-2.72-.25-2.88-2.38-.42-5.64-1.06-11.26-1.76-16.87-.24-1.91,.18-2.48,2.22-2.5,26.47-.25,52.93-.6,79.39-.93,2.74-.03,2.69-.07,2.87-2.72,.42-6.18,.81-12.36,1.38-18.53,.15-1.66-.24-2.01-1.84-2-26.67,.13-53.34,.2-80.01,.29-1.62,0-3.24-.04-4.85,.04-1.15,.06-1.68-.24-1.76-1.52-.39-6.32-.86-12.63-1.33-18.94-.06-.87,.21-1.26,1.1-1.21,.54,.03,1.08,0,1.62,0,18.18,0,36.37,0,54.55,0s36.77,.03,55.16-.04c1.84,0,2.16,.43,1.99,2.25Z"/></g></g></svg>