<?xml version="1.0" encoding="UTF-8"?><svg id="Layer_2" xmlns="http://www.w3.org/2000/svg" viewBox="0 0 717.7 127.86"><defs><style>.cls-1{fill:#00b0af;}</style></defs><g id="Layer_1-2"><g><path class="cls-1" d="M167.22,.09c8.6,0,16.83,.09,25.05-.05,2.37-.04,2.76,1.05,3.19,3.02,5.6,25.63,11.3,51.24,16.98,76.85,.74,3.34,1.52,6.67,2.87,9.95,4.31-17.44,8.63-34.88,12.94-52.31,2.89-11.68,5.85-23.34,8.62-35.04,.48-2.04,1.36-2.48,3.27-2.45,6.86,.1,13.73,.14,20.59-.02,2.61-.06,3.05,.54,2.37,3.07-9.03,33.4-17.96,66.82-26.91,100.24-1.83,6.83-3.77,13.63-5.43,20.5-.56,2.33-1.44,3.24-3.96,3.2-8.48-.16-16.97-.06-25.46-.06-1.47,0-2.72,.19-3.26-1.99-10.14-41.04-20.39-82.06-30.62-123.08-.12-.48-.14-.98-.25-1.81Z"/><path class="cls-1" d="M534.97,63.09c0-19.63,.1-39.26-.09-58.88-.03-3.54,1.08-4.22,4.37-4.19,20.72,.14,41.43,.13,62.15,0,2.93-.02,3.87,.72,3.68,3.67-.26,4.21-.35,8.47,.02,12.66,.32,3.53-1.09,3.99-4.18,3.95-11.48-.17-22.96,0-34.44-.13-2.59-.03-3.41,.65-3.36,3.29,.17,7.95,.18,15.9,0,23.85-.06,2.72,.59,3.61,3.48,3.56,10.85-.18,21.72,.03,32.57-.14,2.81-.04,3.7,.69,3.53,3.51-.25,4.08-.22,8.2,0,12.29,.14,2.67-.84,3.36-3.4,3.34-10.73-.12-21.47,.06-32.2-.11-3.1-.05-4.04,.84-3.98,3.96,.2,9.81,.18,19.63,0,29.44-.05,2.86,.88,3.54,3.62,3.51,12.1-.14,24.21,0,36.32-.11,2.56-.03,3.51,.61,3.39,3.29-.21,4.59-.26,9.2,.01,13.78,.18,2.98-1,3.43-3.64,3.42-21.47-.1-42.93-.11-64.4,.01-2.89,.02-3.52-.87-3.51-3.58,.1-20.12,.06-40.25,.06-60.37Z"/><path class="cls-1" d="M495.65,74.52c0,16.39-.06,32.79,.06,49.18,.02,2.56-.57,3.43-3.27,3.34-6.23-.2-12.48-.25-18.71,.01-3.1,.13-3.62-.98-3.61-3.76,.09-32.54,0-65.07,.15-97.61,.02-3.57-1.11-4.23-4.36-4.16-9.73,.2-19.46,0-29.19,.12-2.51,.03-3.55-.5-3.44-3.24,.21-5.21,.15-10.43,.02-15.64-.06-2.13,.63-2.71,2.74-2.71,29.94,.06,59.89,.06,89.83,0,2.04,0,2.85,.44,2.78,2.65-.16,5.34-.16,10.68,0,16.02,.07,2.31-.66,2.96-2.96,2.93-8.86-.13-17.72,.06-26.57-.11-2.73-.05-3.58,.57-3.56,3.44,.15,16.52,.07,33.03,.07,49.55Z"/><path class="cls-1" d="M447.28,62.11c-.5,0-1,0-1.5,0-2.62-.03-5.71,.79-7.73-.31-2.25-1.24-.85-4.72-1.46-7.17-.76-3.01-2.37-4.89-5.46-5.23-3.04-.33-5.61,.42-7.18,3.44-2.98,5.74-.94,11.16,5.65,15.17,5.82,3.53,12.09,6.29,17.64,10.32,8.67,6.29,12.76,14.63,11.64,25.33-1.06,10.08-6.01,17.73-15.49,21.49-10.42,4.14-21.1,3.49-31.11-1.59-7.12-3.61-11.89-16.32-9.81-24.13,.33-1.22,.92-1.55,2.07-1.54,5.24,.03,10.49,.09,15.73-.02,1.88-.04,2.4,.91,2.5,2.44,.09,1.36,.08,2.73,.21,4.09,.5,5.51,2.41,7.33,7.74,7.42,4.42,.08,7.54-2.84,8.06-7.57,.67-6.08-2.44-10.22-7.29-13.17-5.49-3.34-11.27-6.22-16.76-9.58-13.37-8.18-16.35-25.6-6.52-37.32,6.96-8.3,24.52-11.31,35.77-6,8.71,4.11,12.82,11.23,13.38,20.68,.16,2.65-.73,3.54-3.34,3.3-2.23-.2-4.49-.04-6.74-.04Z"/><path class="cls-1" d="M297.92,63.47c0,20.01-.07,40.02,.07,60.02,.02,3.01-.89,3.74-3.76,3.65-6.11-.2-12.24-.23-18.35,0-3.29,.13-4.39-.64-4.37-4.19,.15-32.93,.09-65.86,.09-98.8,0-6.96,.13-13.92-.07-20.88-.08-2.72,.84-3.31,3.39-3.23,6.24,.18,12.49,.23,18.72-.01,3.26-.13,4.4,.59,4.36,4.16-.2,19.76-.1,39.52-.1,59.28Z"/><path class="cls-1" d="M84.98,37.74c-.78-7.54-2.7-14.88-6.56-21.52C71.72,4.67,60.75,.64,48.21,.3,33.74-.09,19.25,.26,4.78,0,1.15-.06-.05,.65,0,4.58,.24,24.21,.11,43.84,.11,63.48c0,19.88,.04,39.76-.05,59.64-.01,2.59,.44,3.72,3.45,3.68,13.73-.17,27.47,.08,41.19-.13,9.09-.14,17.82-2.04,25.27-7.67,9.6-7.24,13.43-17.63,15.08-28.92,2.54-17.43,1.73-34.91-.07-52.34Zm-25.62,35.53c-.15,7.29-.43,14.63-2.86,21.66-2.74,7.96-7.72,11.6-16.13,11.66-3.49,.02-6.99-.14-10.47,.05-2.56,.14-3.12-.88-3.11-3.23,.09-13.28,.05-26.57,.04-39.85,0-13.04,.1-26.07-.07-39.11-.04-3.18,.98-4.12,4.03-3.9,3.72,.27,7.49-.02,11.2,.27,8.6,.67,13.48,5.12,15.39,13.55,2.91,12.86,2.26,25.9,1.98,38.89Z"/><path class="cls-1" d="M391.11,30.44c-4.02-20.75-15.72-29.71-36.88-30.18-14.09-.32-28.19-.05-42.28-.24-2.82-.04-3.53,.73-3.52,3.51,.12,19.86,.07,39.73,.07,59.59s.04,39.98-.05,59.97c-.01,2.59,.4,3.74,3.41,3.7,13.34-.17,26.69,.07,40.04-.13,7.5-.11,14.84-1.36,21.55-5.07,10.35-5.72,15.84-15,17.97-26.08,4.18-21.66,3.85-43.55-.32-65.08Zm-25.81,59.4c-.29,1.83-.82,3.64-1.41,5.39-2.54,7.51-7.26,11.06-15.24,11.33-3.99,.14-7.99-.12-11.98,.08-2.43,.12-2.88-.83-2.87-3.01,.09-13.42,.04-26.83,.04-40.25,0-13.17,.07-26.34-.06-39.5-.02-2.58,.66-3.49,3.31-3.34,4.48,.26,8.98,.05,13.46,.33,6.66,.42,10.97,4.02,13.29,10.21,1.58,4.23,2.34,8.61,2.56,13.05,.75,15.25,1.34,30.51-1.1,45.69Z"/><path class="cls-1" d="M717.38,124.03c-3.55-12.74-6.98-25.51-10.45-38.28-7.55-27.79-15.11-55.58-22.63-83.38-.45-1.68-1.21-2.38-3.08-2.33-4.99,.14-9.98,.05-14.97,.05-4.74,0-9.5,.2-14.22-.08-2.84-.17-3.73,.96-4.42,3.48-7.35,26.66-14.83,53.29-22.26,79.92-3.8,13.62-7.59,27.24-11.41,40.86-.42,1.5-1.08,2.79,1.57,2.74,7.11-.13,14.23-.1,21.34,0,1.97,.03,2.47-.92,2.88-2.57,1.85-7.46,3.9-14.87,5.72-22.34,.5-2.06,1.36-2.79,3.54-2.76,10.23,.12,20.46,.12,30.69,0,2.3-.03,3.28,.72,3.8,2.93,1.75,7.33,3.73,14.61,5.54,21.93,.47,1.89,1.09,2.91,3.43,2.85,7.61-.19,15.22-.17,22.83-.01,2.69,.06,2.7-.84,2.1-3Zm-41.47-44.14c-7.11-.04-14.23-.04-21.34,0-1.44,0-2.03-.39-1.67-1.95,3.91-17.17,7.77-34.35,11.66-51.52,.01-.05,.21-.06,.83-.23,4.03,17.32,8.02,34.54,12.07,51.74,.37,1.57-.07,1.96-1.56,1.96Z"/><path class="cls-1" d="M187.28,124.15c-3.45-12.26-6.69-24.58-10.02-36.87-7.6-28.04-15.23-56.08-22.77-84.14-.62-2.29-1.61-3.22-4.1-3.11-4.73,.21-9.48,.06-14.22,.06-4.87,0-9.74,.12-14.6-.05-2.27-.08-3.27,.61-3.86,2.85-2.61,9.83-5.41,19.61-8.15,29.41-8.53,30.46-17.05,60.93-25.66,91.37-.74,2.61-.39,3.45,2.51,3.37,6.61-.19,13.23-.18,19.84,0,2.25,.06,3.01-.8,3.49-2.77,1.8-7.35,3.8-14.65,5.55-22,.53-2.21,1.51-2.96,3.81-2.93,10.23,.12,20.47,.12,30.7,0,2.19-.03,3.01,.72,3.51,2.76,1.84,7.44,3.94,14.82,5.77,22.27,.45,1.83,.98,2.71,3.09,2.67,7.74-.13,15.48-.11,23.21-.02,2.44,.03,2.5-.73,1.9-2.86Zm-40.36-44.8c-1.23,1.4-5.16,.49-7.88,.51-4.73,.04-9.47-.04-14.2,.04-1.7,.03-2.51-.22-2.05-2.24,3.9-17.14,7.73-34.29,11.59-51.44,.08-.34,.34-.64,.67-1.26,3.64,15.65,7.25,31,10.73,46.39,.61,2.71,2.8,6.13,1.14,8Z"/></g></g></svg>