<?xml version="1.0" encoding="UTF-8"?><svg xmlns="http://www.w3.org/2000/svg" viewBox="0 0 156.69 156.71"><defs><style>.d{fill:#03254c;}</style></defs><g id="a"/><g id="b"><g id="c"><path class="d" d="M109.86,69.05c5.57,5.57,10.77,10.76,15.97,15.96,9.81,9.81,19.62,19.62,29.43,29.44,1.92,1.92,1.91,2.4-.03,4.34-12.17,12.17-24.34,24.35-36.51,36.52-1.87,1.87-2.39,1.87-4.22,.03-14.64-14.64-29.29-29.29-43.93-43.93-.4-.4-.82-.78-1.31-1.26-.5,.47-.95,.89-1.38,1.32-10.33,10.33-20.65,20.67-31.01,30.96-.78,.77-1.82,1.43-2.86,1.76-9.03,2.88-18.08,5.71-27.14,8.47-.79,.24-2.06,.22-2.54-.26-.48-.47-.5-1.75-.26-2.54,2.81-9.22,5.68-18.41,8.6-27.59,.27-.85,.86-1.67,1.5-2.31,10.3-10.35,20.64-20.68,30.97-31,.44-.44,.95-.81,1.58-1.34-.58-.61-.98-1.05-1.41-1.47C30.71,71.55,16.11,56.94,1.5,42.33c-2.01-2.01-2-2.42,.02-4.44C13.62,25.79,25.72,13.69,37.81,1.59c2.13-2.13,2.48-2.13,4.67,.06,14.53,14.53,29.07,29.07,43.59,43.61,.4,.4,.73,.89,1.21,1.48,.62-.59,1.07-.99,1.49-1.42,12.17-12.17,24.33-24.36,36.52-36.51,5.47-5.46,12.96-6.66,19.36-3.19,8.87,4.8,11.12,16.57,4.64,24.3-.6,.72-1.26,1.39-1.93,2.05-11.98,11.99-23.97,23.98-35.96,35.96-.4,.4-.92,.68-1.54,1.13Zm-32.71-12.52c-14.75-14.76-29.63-29.64-44.4-44.41C23.47,21.39,14.08,30.79,4.77,40.09l7.34,7.34c1.71-1.74,3.5-3.55,5.27-5.39,.89-.93,1.85-1.45,2.99-.49,.94,.79,.77,1.89-.45,3.09-1.81,1.78-3.65,3.53-5.29,5.13l6.57,6.63c.31-.3,.73-.68,1.13-1.08,1.52-1.51,3.02-3.03,4.54-4.53,.83-.82,1.79-.92,2.63-.09,.84,.84,.72,1.78-.07,2.64-.35,.38-.72,.75-1.1,1.11-1.62,1.52-3.24,3.03-4.76,4.45l6.97,7.01c.24-.42,.45-1.01,.84-1.41,1.51-1.58,3.07-3.12,4.64-4.65,.78-.76,1.7-.85,2.52-.1,.81,.74,.84,1.64,.15,2.51-.29,.37-.64,.69-.97,1.02-1.66,1.64-3.32,3.28-4.81,4.75,2.26,2.26,4.38,4.37,6.62,6.61,1.5-1.54,3.13-3.22,4.78-4.89,1.53-1.55,2.5-1.77,3.43-.82,.91,.94,.67,1.88-.88,3.44-1.68,1.68-3.36,3.36-4.87,4.87l7.21,7.22c9.29-9.29,18.68-18.68,27.94-27.93Zm23.19,23.03c-9.39,9.39-18.77,18.78-27.9,27.9,2.27,2.27,4.67,4.69,7.27,7.3,.26-.33,.61-.85,1.04-1.3,1.46-1.49,2.93-2.97,4.43-4.42,.84-.81,1.8-.87,2.63,0,.78,.8,.69,1.71-.03,2.52-.52,.59-1.09,1.12-1.64,1.68-1.42,1.42-2.84,2.84-4.04,4.05,2.27,2.26,4.35,4.35,6.57,6.57,1.52-1.55,3.15-3.23,4.8-4.89,1.57-1.58,2.48-1.83,3.42-.95,.98,.91,.72,1.96-.86,3.55-1.68,1.68-3.35,3.36-4.89,4.9,2.25,2.26,4.34,4.36,6.49,6.52,.29-.28,.67-.62,1.03-.98,1.59-1.58,3.16-3.18,4.76-4.75,.77-.76,1.8-1,2.46-.13,.42,.55,.37,1.57,.3,2.35-.03,.37-.58,.7-.91,1.03-1.73,1.72-3.47,3.43-5.03,4.97,2.28,2.28,4.4,4.41,6.61,6.61,1.72-1.75,3.51-3.64,5.4-5.44,.48-.46,1.24-.84,1.88-.83,.47,0,1.27,.62,1.34,1.06,.1,.67-.08,1.61-.52,2.09-1.84,1.98-3.83,3.82-5.59,5.54,2.59,2.6,5.03,5.04,7.3,7.32,9.27-9.27,18.66-18.66,27.98-27.98-14.76-14.75-29.61-29.6-44.3-44.28Zm14.66-54.7c-30.38,30.38-60.74,60.75-91.07,91.08l6.9,6.96c30.38-30.38,60.76-60.76,91.1-91.11l-6.93-6.92Zm9.93,10.01c-30.32,30.33-60.69,60.7-90.85,90.87,2.27,2.3,4.67,4.74,6.97,7.07,30.28-30.29,60.63-60.64,90.91-90.92-2.35-2.35-4.78-4.78-7.02-7.02Zm-40.42,14.34c-14.82-14.83-29.66-29.68-44.32-44.35l-4.39,4.37c14.74,14.74,29.58,29.59,44.37,44.38l4.34-4.4Zm67.42,67.53c-14.82-14.82-29.7-29.7-44.35-44.35l-4.26,4.26c14.7,14.7,29.54,29.55,44.39,44.39,1.38-1.41,2.87-2.92,4.23-4.3Zm-10.83-84.09c1.82-1.72,3.86-3.32,5.5-5.25,4.02-4.73,3.67-11.78-.61-16.26-4.35-4.54-11.46-5.22-16.32-1.27-2.08,1.69-3.7,3.94-5.47,5.87,5.49,5.5,11.23,11.24,16.91,16.93ZM30.79,141.41c-5.18-5.2-10.31-10.34-15.47-15.52l-7.03,22.55,22.5-7.02ZM138.26,35.84c-5.86-5.87-11.61-11.63-17.18-17.21l-3.3,3.12c5.75,5.76,11.5,11.52,17.24,17.28,1.06-1.05,2.24-2.21,3.23-3.19ZM21.12,118.7l-3.46,3.3c5.69,5.69,11.45,11.45,17.02,17.01l3.43-3.28c-5.7-5.72-11.43-11.46-17-17.03Z"/></g></g></svg>