<?xml version="1.0" encoding="UTF-8"?><svg xmlns="http://www.w3.org/2000/svg" viewBox="0 0 205.74 198.86"><defs><style>.d{fill:#03254c;}</style></defs><g id="a"/><g id="b"><g id="c"><g><path class="d" d="M87.6,119.71c-7.16,.06-12.3,5.05-12.36,11.94-.05,6.63,4.97,11.96,11.68,12.4,6.47,.42,12.67-4.97,13.02-11.58,.22-4.07,.04-8.16,.04-12.76-4.48,0-8.43-.03-12.38,0Z"/><path class="d" d="M85.43,113.62c4.68,.56,9.47,.11,14.38,.11v-24.39c-4.6,0-8.7-.14-12.8,.03-6.33,.26-11.32,5.05-11.71,11.02-.45,6.75,3.6,12.46,10.13,13.23Z"/><path class="d" d="M118.33,89.33c-6.81-.05-12.43,5.36-12.52,12.07-.09,6.91,5.56,12.52,12.54,12.46,6.89-.06,12.22-5.41,12.21-12.27,0-6.85-5.35-12.21-12.23-12.26Z"/><path class="d" d="M84.06,83.03c5.17,.74,10.53,.16,15.74,.16v-23.6c-5.25,0-10.35-.52-15.29,.14-5.57,.74-9.2,5.83-9.25,11.45-.05,5.61,3.46,11.09,8.81,11.85Z"/><path class="d" d="M121.5,59.75c-5.04-.85-10.28-.58-15.54-.81v24.55c4.55,0,8.66,.05,12.77-.01,5.88-.09,11.05-4.56,11.75-10.05,.83-6.58-2.77-12.63-8.98-13.68Z"/><path class="d" d="M169.84,0H35.9C16.07,0,0,16.07,0,35.9v127.07c0,19.83,16.07,35.9,35.9,35.9H169.84c19.82,0,35.9-16.07,35.9-35.9V35.9c0-19.83-16.07-35.9-35.9-35.9Zm-33.6,101.49c-.44,3.89-1.72,8.14-3.95,11.3-5.44,7.73-14.13,8.46-26.49,2.88,0,5.05,0,9.92,0,14.8-.02,9.35-5.32,16.64-13.61,18.73-8.14,2.06-16.74-1.64-20.71-8.9-4.1-7.51-2.35-15.99,4.67-22.62,.29-.27,.54-.6,.81-.89-11.11-10.19-9.19-22.31-.89-29.48-2.27-4.68-5.51-8.89-6.32-13.53-1.89-10.85,6-19.86,17.34-20.29,10.55-.4,21.13-.3,31.69-.01,8.02,.21,13.92,4.3,16.58,11.9,2.9,8.3,.26,15.31-6.7,21.06,4.63,4.01,8.31,8.78,7.59,15.06Z"/></g></g></g></svg>