<?xml version="1.0" encoding="UTF-8"?><svg xmlns="http://www.w3.org/2000/svg" viewBox="0 0 154.18 147.72"><defs><style>.d{fill:#fff;}</style></defs><g id="a"/><g id="b"><g id="c"><path class="d" d="M0,71.44c.4-2.92,.68-5.86,1.2-8.75C4.62,43.93,13.93,28.66,28.76,16.79,40.36,7.5,53.65,2.08,68.41,.47c40.53-4.4,76.15,22.27,84.17,59.91,7.13,33.48-10.18,68.36-41.26,83-2.99,1.41-6.1,2.53-9.17,3.77-.46,.19-.95,.33-1.44,.4-2.91,.42-4.67-1.07-4.67-4,0-6.17-.03-12.35,.06-18.52,.08-5.8-.64-11.31-4.89-15.71,3.51-.7,6.97-1.22,10.34-2.11,8.29-2.19,15.24-6.35,19.67-14.01,2.87-4.97,4.14-10.41,4.63-16.05,.49-5.59,.51-11.21-1.86-16.42-1.36-2.98-3.38-5.65-5.05-8.49-.29-.49-.56-1.21-.41-1.7,1.77-5.83,1.39-11.59-.46-17.31-.67-2.07-.91-2.2-3.12-2.03-3.45,.27-6.69,1.33-9.75,2.87-2.68,1.35-5.24,2.95-7.9,4.34-.64,.33-1.53,.55-2.2,.39-12.07-2.98-24.12-2.97-36.2-.01-.71,.17-1.69-.05-2.32-.44-4.76-2.92-9.6-5.63-15.15-6.8-4.63-.98-5.1-.7-6.25,3.88-1.29,5.12-1.39,10.21,.31,15.27,.12,.37,.02,1.01-.24,1.29-6.41,7.18-8.05,15.71-7.18,24.97,.53,5.69,1.76,11.19,4.65,16.2,4.42,7.65,11.34,11.86,19.62,14.07,3.36,.9,6.82,1.43,10.35,2.15-2.55,2.58-3.84,5.78-4.52,9.28-.07,.38-.56,.82-.95,.97-8.16,3.19-16.29,1.98-21.43-6.47-2.55-4.2-6.11-7.18-11.17-7.85-1.06-.14-2.2,.03-3.25,.29-1.06,.26-1.32,1.12-.61,1.97,.64,.76,1.38,1.49,2.22,2,3.96,2.38,6.74,5.83,8.27,10.04,3.46,9.56,12.36,13.22,21.91,12.2,1.49-.16,2.98-.39,4.7-.63,0,1.7,0,3.39,0,5.07,.01,2.26,.05,4.52,.06,6.77,.02,3.84-2.26,5.51-5.88,4.29-10.21-3.45-19.35-8.77-27.29-16.05C11.94,119.52,3.99,105.06,1.03,87.9,.57,85.24,.34,82.55,0,79.87v-8.43Z"/></g></g></svg>