<?xml version="1.0" encoding="UTF-8"?><svg xmlns="http://www.w3.org/2000/svg" viewBox="0 0 448.37 164.33"><defs><style>.d{fill:#03254c;}.e{fill:#1167b1;}</style></defs><g id="a"/><g id="b"><g id="c"><g><path class="d" d="M0,65.73V3.42H17.59c5.42,0,10.21,1.2,14.38,3.59s7.38,5.81,9.65,10.23c2.27,4.42,3.42,9.5,3.45,15.24v3.98c0,5.88-1.13,11.03-3.4,15.45-2.27,4.42-5.51,7.82-9.71,10.19-4.21,2.37-9.11,3.58-14.7,3.64H0ZM8.22,10.14V59.02h8.64c6.33,0,11.26-1.97,14.79-5.91s5.29-9.55,5.29-16.84v-3.64c0-7.08-1.66-12.59-4.99-16.51-3.32-3.93-8.04-5.92-14.14-5.98H8.22Z"/><path class="d" d="M75.45,66.59c-6.28,0-11.38-2.06-15.32-6.18-3.94-4.12-5.91-9.64-5.91-16.54v-1.46c0-4.59,.88-8.69,2.63-12.3,1.75-3.61,4.21-6.43,7.36-8.47,3.15-2.04,6.57-3.06,10.25-3.06,6.02,0,10.7,1.98,14.04,5.95,3.34,3.97,5.01,9.64,5.01,17.03v3.3h-31.37c.11,4.56,1.45,8.25,4,11.06,2.55,2.81,5.8,4.22,9.74,4.22,2.8,0,5.16-.57,7.1-1.71,1.94-1.14,3.64-2.65,5.09-4.54l4.84,3.77c-3.88,5.96-9.7,8.94-17.46,8.94Zm-.98-41.51c-3.2,0-5.88,1.16-8.05,3.49s-3.51,5.58-4.02,9.78h23.2v-.6c-.23-4.02-1.31-7.14-3.25-9.35-1.94-2.21-4.56-3.32-7.87-3.32Z"/><path class="d" d="M117.39,54.99l11.47-35.56h8.09l-16.6,46.31h-6.03l-16.78-46.31h8.09l11.77,35.56Z"/><path class="d" d="M163.78,66.59c-6.28,0-11.38-2.06-15.32-6.18-3.94-4.12-5.91-9.64-5.91-16.54v-1.46c0-4.59,.88-8.69,2.63-12.3s4.21-6.43,7.36-8.47,6.57-3.06,10.25-3.06c6.02,0,10.7,1.98,14.04,5.95,3.34,3.97,5.01,9.64,5.01,17.03v3.3h-31.37c.11,4.56,1.45,8.25,4,11.06,2.55,2.81,5.8,4.22,9.74,4.22,2.8,0,5.16-.57,7.1-1.71s3.64-2.65,5.09-4.54l4.84,3.77c-3.88,5.96-9.7,8.94-17.46,8.94Zm-.98-41.51c-3.2,0-5.88,1.16-8.05,3.49s-3.51,5.58-4.02,9.78h23.2v-.6c-.23-4.02-1.31-7.14-3.25-9.35-1.94-2.21-4.56-3.32-7.87-3.32Z"/><path class="d" d="M199.6,65.73h-7.92V0h7.92V65.73Z"/><path class="d" d="M210.17,42.15c0-4.54,.89-8.62,2.67-12.24,1.78-3.62,4.27-6.42,7.45-8.39s6.81-2.95,10.89-2.95c6.31,0,11.41,2.18,15.3,6.55,3.89,4.37,5.84,10.17,5.84,17.42v.56c0,4.51-.86,8.55-2.59,12.13s-4.19,6.37-7.4,8.37-6.9,3-11.06,3c-6.28,0-11.36-2.18-15.26-6.55-3.89-4.37-5.84-10.14-5.84-17.33v-.56Zm7.96,.94c0,5.14,1.19,9.26,3.57,12.37,2.38,3.11,5.57,4.66,9.56,4.66s7.22-1.58,9.59-4.73c2.37-3.15,3.55-7.57,3.55-13.25,0-5.08-1.21-9.19-3.62-12.35-2.41-3.15-5.61-4.73-9.61-4.73s-7.06,1.55-9.46,4.66c-2.4,3.11-3.59,7.56-3.59,13.35Z"/><path class="e" d="M301.37,43.1c0,7.05-1.61,12.72-4.84,17.03s-7.59,6.46-13.1,6.46-10.04-1.78-13.27-5.35v84.86h-7.92V19.43h7.23l.39,5.14c3.22-3.99,7.7-5.99,13.44-5.99s9.96,2.1,13.2,6.29c3.24,4.19,4.86,10.03,4.86,17.5v.73Zm-7.92-.9c0-5.22-1.11-9.34-3.34-12.37-2.23-3.02-5.28-4.54-9.16-4.54-4.79,0-8.39,2.13-10.78,6.38v22.13c2.37,4.22,5.99,6.33,10.87,6.33,3.79,0,6.81-1.5,9.05-4.51s3.36-7.48,3.36-13.42Z"/><path class="d" d="M330.64,66.59c-6.28,0-11.38-2.06-15.32-6.18-3.94-4.12-5.91-9.64-5.91-16.54v-1.46c0-4.59,.88-8.69,2.63-12.3,1.75-3.61,4.21-6.43,7.36-8.47,3.15-2.04,6.57-3.06,10.25-3.06,6.02,0,10.7,1.98,14.04,5.95,3.34,3.97,5.01,9.64,5.01,17.03v3.3h-31.37c.11,4.56,1.45,8.25,4,11.06,2.55,2.81,5.8,4.22,9.74,4.22,2.8,0,5.16-.57,7.1-1.71,1.94-1.14,3.64-2.65,5.09-4.54l4.84,3.77c-3.88,5.96-9.7,8.94-17.46,8.94Zm-.98-41.51c-3.2,0-5.88,1.16-8.05,3.49s-3.51,5.58-4.02,9.78h23.2v-.6c-.23-4.02-1.31-7.14-3.25-9.35-1.94-2.21-4.56-3.32-7.87-3.32Z"/><path class="d" d="M380.24,26.53c-1.2-.2-2.5-.3-3.89-.3-5.19,0-8.72,2.21-10.57,6.63v32.87h-7.92V19.43h7.7l.13,5.35c2.6-4.14,6.28-6.21,11.04-6.21,1.54,0,2.71,.2,3.51,.6v7.36Z"/><path class="d" d="M112.9,146.1v-62.31h17.59c5.42,0,10.21,1.2,14.38,3.59,4.17,2.4,7.38,5.81,9.65,10.23,2.27,4.42,3.42,9.5,3.45,15.24v3.98c0,5.88-1.13,11.03-3.4,15.45s-5.51,7.82-9.71,10.19-9.11,3.58-14.7,3.64h-17.25Zm8.22-55.59v48.87h8.64c6.33,0,11.26-1.97,14.79-5.91,3.52-3.94,5.29-9.55,5.29-16.84v-3.64c0-7.08-1.66-12.59-4.99-16.51-3.32-3.93-8.04-5.92-14.14-5.98h-9.59Z"/><path class="d" d="M188.35,146.95c-6.28,0-11.38-2.06-15.32-6.18s-5.91-9.64-5.91-16.54v-1.46c0-4.59,.88-8.69,2.63-12.3,1.75-3.61,4.21-6.43,7.36-8.47,3.15-2.04,6.57-3.06,10.25-3.06,6.02,0,10.7,1.98,14.04,5.95s5.01,9.64,5.01,17.03v3.3h-31.37c.11,4.56,1.45,8.25,4,11.06,2.55,2.81,5.8,4.22,9.74,4.22,2.8,0,5.16-.57,7.1-1.71,1.94-1.14,3.64-2.65,5.09-4.54l4.84,3.77c-3.88,5.96-9.7,8.94-17.46,8.94Zm-.98-41.51c-3.2,0-5.88,1.16-8.05,3.49s-3.51,5.58-4.02,9.78h23.2v-.6c-.23-4.02-1.31-7.14-3.25-9.35-1.94-2.21-4.56-3.32-7.87-3.32Z"/><path class="d" d="M243.79,133.82c0-2.14-.81-3.8-2.42-4.99-1.61-1.18-4.42-2.2-8.43-3.06-4.01-.86-7.19-1.88-9.54-3.08-2.35-1.2-4.09-2.62-5.22-4.28-1.13-1.65-1.69-3.62-1.69-5.91,0-3.79,1.6-7,4.81-9.63,3.21-2.62,7.31-3.94,12.3-3.94,5.25,0,9.51,1.36,12.77,4.07,3.27,2.71,4.9,6.18,4.9,10.4h-7.96c0-2.17-.92-4.04-2.76-5.61-1.84-1.57-4.16-2.35-6.95-2.35s-5.14,.63-6.76,1.88-2.44,2.9-2.44,4.92c0,1.91,.76,3.35,2.27,4.32s4.24,1.9,8.2,2.78,7.15,1.94,9.61,3.17c2.45,1.23,4.27,2.7,5.46,4.43s1.78,3.83,1.78,6.31c0,4.14-1.65,7.45-4.96,9.95s-7.6,3.74-12.88,3.74c-3.71,0-6.99-.66-9.84-1.97s-5.09-3.15-6.7-5.5c-1.61-2.35-2.42-4.9-2.42-7.64h7.92c.14,2.65,1.21,4.76,3.19,6.31,1.98,1.55,4.6,2.33,7.85,2.33,3,0,5.4-.61,7.21-1.82s2.72-2.83,2.72-4.86Z"/><path class="d" d="M280.14,122.56c0-7.22,1.67-12.96,5.01-17.23,3.34-4.27,7.76-6.4,13.27-6.4s10.06,2,13.22,5.99l.39-5.14h7.23v45.19c0,5.99-1.78,10.71-5.33,14.17-3.55,3.45-8.32,5.18-14.32,5.18-3.34,0-6.6-.71-9.8-2.14-3.2-1.43-5.63-3.38-7.32-5.86l4.11-4.75c3.4,4.19,7.55,6.29,12.45,6.29,3.85,0,6.85-1.08,9.01-3.25,2.15-2.17,3.23-5.22,3.23-9.16v-3.98c-3.17,3.65-7.49,5.48-12.97,5.48s-9.81-2.18-13.16-6.55-5.03-10.31-5.03-17.85Zm7.96,.9c0,5.22,1.07,9.32,3.21,12.3,2.14,2.98,5.14,4.47,8.99,4.47,4.99,0,8.66-2.27,11-6.8v-21.14c-2.43-4.42-6.06-6.63-10.91-6.63-3.85,0-6.86,1.5-9.03,4.49s-3.25,7.43-3.25,13.31Z"/><path class="d" d="M338.69,99.79l.26,5.82c3.54-4.45,8.16-6.68,13.87-6.68,9.79,0,14.72,5.52,14.81,16.56v30.6h-7.92v-30.64c-.03-3.34-.79-5.81-2.29-7.4s-3.83-2.4-7-2.4c-2.57,0-4.82,.68-6.76,2.05s-3.45,3.17-4.54,5.39v33h-7.92v-46.31h7.49Z"/><path class="d" d="M398.77,146.95c-6.28,0-11.38-2.06-15.32-6.18-3.94-4.12-5.91-9.64-5.91-16.54v-1.46c0-4.59,.88-8.69,2.63-12.3,1.75-3.61,4.21-6.43,7.36-8.47,3.15-2.04,6.57-3.06,10.25-3.06,6.02,0,10.7,1.98,14.04,5.95s5.01,9.64,5.01,17.03v3.3h-31.37c.11,4.56,1.45,8.25,4,11.06,2.55,2.81,5.8,4.22,9.74,4.22,2.8,0,5.16-.57,7.1-1.71,1.94-1.14,3.64-2.65,5.09-4.54l4.84,3.77c-3.88,5.96-9.7,8.94-17.46,8.94Zm-.98-41.51c-3.2,0-5.88,1.16-8.05,3.49-2.17,2.33-3.51,5.58-4.02,9.78h23.2v-.6c-.23-4.02-1.31-7.14-3.25-9.35-1.94-2.21-4.56-3.32-7.87-3.32Z"/><path class="d" d="M448.37,106.9c-1.2-.2-2.5-.3-3.89-.3-5.19,0-8.72,2.21-10.57,6.63v32.87h-7.92v-46.31h7.7l.13,5.35c2.6-4.14,6.28-6.21,11.04-6.21,1.54,0,2.71,.2,3.51,.6v7.36Z"/></g></g></g></svg>