<?xml version="1.0" encoding="UTF-8"?><svg xmlns="http://www.w3.org/2000/svg" viewBox="0 0 118.85 39.58"><defs><style>.d{fill:#03254c;}.e{fill:#1167b1;}</style></defs><g id="a"/><g id="b"><g id="c"><g><g><path class="d" d="M0,15.83V.82H4.24c1.31,0,2.46,.29,3.46,.87s1.78,1.4,2.32,2.46,.82,2.29,.83,3.67v.96c0,1.42-.27,2.66-.82,3.72s-1.33,1.88-2.34,2.45-2.19,.86-3.54,.88H0ZM1.98,2.44V14.22h2.08c1.53,0,2.71-.47,3.56-1.42s1.27-2.3,1.27-4.06v-.88c0-1.71-.4-3.03-1.2-3.98-.8-.95-1.94-1.43-3.41-1.44H1.98Z"/><path class="d" d="M18.17,16.04c-1.51,0-2.74-.5-3.69-1.49s-1.42-2.32-1.42-3.98v-.35c0-1.11,.21-2.09,.63-2.96s1.01-1.55,1.77-2.04,1.58-.74,2.47-.74c1.45,0,2.58,.48,3.38,1.43s1.21,2.32,1.21,4.1v.79h-7.56c.03,1.1,.35,1.99,.96,2.66s1.4,1.02,2.35,1.02c.67,0,1.24-.14,1.71-.41s.88-.64,1.23-1.09l1.16,.91c-.93,1.44-2.34,2.15-4.21,2.15Zm-.24-10c-.77,0-1.42,.28-1.94,.84s-.85,1.35-.97,2.36h5.59v-.14c-.05-.97-.32-1.72-.78-2.25s-1.1-.8-1.9-.8Z"/><path class="d" d="M28.28,13.25l2.76-8.57h1.95l-4,11.15h-1.45l-4.04-11.15h1.95l2.83,8.57Z"/><path class="d" d="M39.45,16.04c-1.51,0-2.74-.5-3.69-1.49s-1.42-2.32-1.42-3.98v-.35c0-1.11,.21-2.09,.63-2.96s1.01-1.55,1.77-2.04,1.58-.74,2.47-.74c1.45,0,2.58,.48,3.38,1.43s1.21,2.32,1.21,4.1v.79h-7.56c.03,1.1,.35,1.99,.96,2.66s1.4,1.02,2.35,1.02c.67,0,1.24-.14,1.71-.41s.88-.64,1.23-1.09l1.16,.91c-.93,1.44-2.34,2.15-4.21,2.15Zm-.24-10c-.77,0-1.42,.28-1.94,.84s-.85,1.35-.97,2.36h5.59v-.14c-.05-.97-.32-1.72-.78-2.25s-1.1-.8-1.9-.8Z"/><path class="d" d="M48.08,15.83h-1.91V0h1.91V15.83Z"/><path class="d" d="M50.62,10.15c0-1.09,.21-2.08,.64-2.95s1.03-1.55,1.79-2.02,1.64-.71,2.62-.71c1.52,0,2.75,.53,3.69,1.58s1.41,2.45,1.41,4.2v.13c0,1.09-.21,2.06-.62,2.92s-1.01,1.53-1.78,2.02-1.66,.72-2.66,.72c-1.51,0-2.74-.53-3.67-1.58s-1.41-2.44-1.41-4.17v-.13Zm1.92,.23c0,1.24,.29,2.23,.86,2.98s1.34,1.12,2.3,1.12,1.74-.38,2.31-1.14,.86-1.82,.86-3.19c0-1.22-.29-2.21-.87-2.97s-1.35-1.14-2.31-1.14-1.7,.37-2.28,1.12-.87,1.82-.87,3.22Z"/><path class="e" d="M72.59,10.38c0,1.7-.39,3.06-1.16,4.1s-1.83,1.56-3.15,1.56-2.42-.43-3.2-1.29v20.44h-1.91V4.68h1.74l.09,1.24c.78-.96,1.86-1.44,3.24-1.44s2.4,.51,3.18,1.52,1.17,2.42,1.17,4.22v.18Zm-1.91-.22c0-1.26-.27-2.25-.8-2.98s-1.27-1.09-2.21-1.09c-1.15,0-2.02,.51-2.6,1.54v5.33c.57,1.02,1.44,1.53,2.62,1.53,.91,0,1.64-.36,2.18-1.09s.81-1.8,.81-3.23Z"/><path class="d" d="M79.64,16.04c-1.51,0-2.74-.5-3.69-1.49s-1.42-2.32-1.42-3.98v-.35c0-1.11,.21-2.09,.63-2.96s1.01-1.55,1.77-2.04,1.58-.74,2.47-.74c1.45,0,2.58,.48,3.38,1.43s1.21,2.32,1.21,4.1v.79h-7.56c.03,1.1,.35,1.99,.96,2.66s1.4,1.02,2.35,1.02c.67,0,1.24-.14,1.71-.41s.88-.64,1.23-1.09l1.16,.91c-.93,1.44-2.34,2.15-4.21,2.15Zm-.24-10c-.77,0-1.42,.28-1.94,.84s-.85,1.35-.97,2.36h5.59v-.14c-.05-.97-.32-1.72-.78-2.25s-1.1-.8-1.9-.8Z"/><path class="d" d="M91.59,6.39c-.29-.05-.6-.07-.94-.07-1.25,0-2.1,.53-2.55,1.6v7.92h-1.91V4.68h1.86l.03,1.29c.63-1,1.51-1.49,2.66-1.49,.37,0,.65,.05,.85,.14v1.77Z"/></g><g><path class="d" d="M38.05,35.19v-15.01h4.24c1.31,0,2.46,.29,3.46,.87s1.78,1.4,2.32,2.46,.82,2.29,.83,3.67v.96c0,1.42-.27,2.66-.82,3.72s-1.33,1.88-2.34,2.45-2.19,.86-3.54,.88h-4.15Zm1.98-13.39v11.77h2.08c1.53,0,2.71-.47,3.56-1.42s1.27-2.3,1.27-4.06v-.88c0-1.71-.4-3.03-1.2-3.98-.8-.95-1.94-1.43-3.41-1.44h-2.31Z"/><path class="d" d="M56.22,35.4c-1.51,0-2.74-.5-3.69-1.49s-1.42-2.32-1.42-3.98v-.35c0-1.11,.21-2.09,.63-2.96s1.01-1.55,1.77-2.04,1.58-.74,2.47-.74c1.45,0,2.58,.48,3.38,1.43s1.21,2.32,1.21,4.1v.79h-7.56c.03,1.1,.35,1.99,.96,2.66s1.4,1.02,2.35,1.02c.67,0,1.24-.14,1.71-.41s.88-.64,1.23-1.09l1.16,.91c-.93,1.44-2.34,2.15-4.21,2.15Zm-.24-10c-.77,0-1.42,.28-1.94,.84s-.85,1.35-.97,2.36h5.59v-.14c-.05-.97-.32-1.72-.78-2.25s-1.1-.8-1.9-.8Z"/><path class="d" d="M74.39,32.23c0-.52-.19-.92-.58-1.2s-1.07-.53-2.03-.74-1.73-.45-2.3-.74-.99-.63-1.26-1.03-.41-.87-.41-1.42c0-.91,.39-1.69,1.16-2.32s1.76-.95,2.96-.95c1.26,0,2.29,.33,3.08,.98s1.18,1.49,1.18,2.5h-1.92c0-.52-.22-.97-.66-1.35s-1-.57-1.68-.57-1.24,.15-1.63,.45-.59,.7-.59,1.19c0,.46,.18,.81,.55,1.04s1.02,.46,1.97,.67,1.72,.47,2.31,.76,1.03,.65,1.31,1.07,.43,.92,.43,1.52c0,1-.4,1.8-1.2,2.4s-1.83,.9-3.1,.9c-.89,0-1.68-.16-2.37-.47s-1.22-.76-1.61-1.32-.58-1.18-.58-1.84h1.91c.03,.64,.29,1.15,.77,1.52s1.11,.56,1.89,.56c.72,0,1.3-.15,1.74-.44s.65-.68,.65-1.17Z"/><path class="d" d="M78.33,29.52c0-1.74,.4-3.12,1.21-4.15s1.87-1.54,3.2-1.54,2.42,.48,3.19,1.44l.09-1.24h1.74v10.89c0,1.44-.43,2.58-1.28,3.41s-2,1.25-3.45,1.25c-.8,0-1.59-.17-2.36-.52s-1.36-.81-1.76-1.41l.99-1.14c.82,1.01,1.82,1.52,3,1.52,.93,0,1.65-.26,2.17-.78s.78-1.26,.78-2.21v-.96c-.76,.88-1.8,1.32-3.12,1.32s-2.36-.53-3.17-1.58-1.21-2.48-1.21-4.3Zm1.92,.22c0,1.26,.26,2.25,.77,2.96s1.24,1.08,2.16,1.08c1.2,0,2.09-.55,2.65-1.64v-5.09c-.58-1.07-1.46-1.6-2.63-1.6-.93,0-1.65,.36-2.18,1.08s-.78,1.79-.78,3.21Z"/><path class="d" d="M92.43,24.04l.06,1.4c.85-1.07,1.97-1.61,3.34-1.61,2.36,0,3.55,1.33,3.57,3.99v7.37h-1.91v-7.38c0-.8-.19-1.4-.55-1.78s-.92-.58-1.69-.58c-.62,0-1.16,.16-1.63,.49s-.83,.76-1.09,1.3v7.95h-1.91v-11.15h1.8Z"/><path class="d" d="M106.91,35.4c-1.51,0-2.74-.5-3.69-1.49s-1.42-2.32-1.42-3.98v-.35c0-1.11,.21-2.09,.63-2.96s1.01-1.55,1.77-2.04,1.58-.74,2.47-.74c1.45,0,2.58,.48,3.38,1.43s1.21,2.32,1.21,4.1v.79h-7.56c.03,1.1,.35,1.99,.96,2.66s1.4,1.02,2.35,1.02c.67,0,1.24-.14,1.71-.41s.88-.64,1.23-1.09l1.16,.91c-.93,1.44-2.34,2.15-4.21,2.15Zm-.24-10c-.77,0-1.42,.28-1.94,.84s-.85,1.35-.97,2.36h5.59v-.14c-.05-.97-.32-1.72-.78-2.25s-1.1-.8-1.9-.8Z"/><path class="d" d="M118.85,25.75c-.29-.05-.6-.07-.94-.07-1.25,0-2.1,.53-2.55,1.6v7.92h-1.91v-11.15h1.86l.03,1.29c.63-1,1.51-1.49,2.66-1.49,.37,0,.65,.05,.85,.14v1.77Z"/></g></g></g></g></svg>