<?xml version="1.0" encoding="UTF-8"?><svg xmlns="http://www.w3.org/2000/svg" viewBox="0 0 183.39 207.42"><defs><style>.d{fill:#03254c;}</style></defs><g id="a"/><g id="b"><g id="c"><path class="d" d="M0,0H183.39c-.84,12.4-1.65,24.81-2.53,37.21-1.82,25.61-3.69,51.22-5.51,76.84-1.56,21.91-3.09,43.81-4.58,65.73-.1,1.52-.64,2.21-2.09,2.68-25.14,8.23-50.25,16.52-75.39,24.74-.94,.31-2.15,.3-3.08,0-24.37-7.97-48.72-16-73.07-24.03-4.34-1.43-4.25-1.44-4.56-6.03-.96-14.23-1.98-28.45-2.99-42.67-1.02-14.42-2.07-28.85-3.09-43.27-1-14.09-1.99-28.18-2.99-42.26C2.34,32.62,1.17,16.31,0,0ZM40.13,134.79c.56,7.98,1.08,15.73,1.71,23.47,.04,.55,.86,1.29,1.46,1.49,15.67,5.28,31.35,10.52,47.04,15.71,.78,.26,1.77,.35,2.52,.1,15.82-5.23,31.63-10.51,47.41-15.86,.61-.21,1.32-1.13,1.38-1.77,.46-4.84,.79-9.7,1.14-14.55,1.05-14.56,2.09-29.12,3.12-43.68,.32-4.49,.61-8.99,.94-13.71H61.06c-.73-10.48-1.45-20.75-2.19-31.22h90.17c.58-8.16,1.14-16.14,1.71-24.16H32.71c1.87,26.65,3.73,53.13,5.6,79.81H120.71c-.73,10.14-1.42,20.05-2.21,29.95-.04,.55-.86,1.29-1.46,1.5-7.99,2.71-16,5.35-24.02,7.97-.67,.22-1.51,.35-2.15,.14-8.28-2.7-16.54-5.45-24.77-8.26-.51-.17-1.06-.95-1.15-1.52-.29-1.77-.37-3.58-.53-5.4h-24.29Z"/></g></g></svg>