<?xml version="1.0" encoding="UTF-8"?><svg xmlns="http://www.w3.org/2000/svg" viewBox="0 0 199.62 199.62"><defs><style>.d{fill:#03254c;}</style></defs><g id="a"/><g id="b"><g id="c"><path class="d" d="M186.61,199.62H13.01c-7.19,0-13.01-5.82-13.01-13.01V13.01C0,5.82,5.82,0,13.01,0H186.61c7.19,0,13.01,5.82,13.01,13.01V186.61c0,7.19-5.82,13.01-13.01,13.01Zm-67.93-35.35c0,.32-.04,.47,0,.58,.12,.3,.25,.6,.41,.88,2.6,4.67,6.04,8.6,10.51,11.53,10.13,6.63,21.28,7.98,32.82,5.45,16.05-3.52,23.65-15.16,20.91-31.37-1.43-8.48-6.81-14.16-14.01-18.11-5.44-2.98-11.23-5.3-16.79-8.06-2.53-1.26-5.08-2.64-7.26-4.41-2.55-2.07-2.89-5.1-2.11-8.19,.76-3.02,2.93-4.8,5.84-5.35,4.84-.91,9.17,.13,12.32,4.29,.81,1.07,1.56,2.18,2.42,3.39,4.95-3.18,9.78-6.28,14.68-9.43-4.26-7.69-10.25-12.73-18.75-14.48-5.13-1.05-10.31-1.18-15.43,0-9.3,2.15-16.3,7.22-19.01,16.67-2.78,9.67-1.14,18.64,5.97,26.15,4.42,4.67,10.14,7.32,15.91,9.89,4.25,1.9,8.51,3.8,12.64,5.96,3.47,1.82,5.54,4.8,5.07,8.88-.49,4.29-3.43,6.47-7.33,7.61-8.3,2.41-16.65-.72-21.93-8.22-.55-.78-1.08-1.57-1.7-2.46-5.19,3.02-10.21,5.94-15.15,8.8Zm-10.04-72.87h-18.93c-.05,1.02-.15,1.98-.15,2.93,0,19.58,0,39.17-.01,58.75,0,1.81-.04,3.63-.19,5.44-.35,4.1-2.37,6.78-5.72,7.75-5.17,1.5-9.68,0-12.86-4.35-1.1-1.5-2.06-3.1-3.18-4.79-5.17,3.13-10.23,6.2-15.37,9.31,2.9,6.04,6.88,10.7,12.6,13.67,7.95,4.13,16.36,4.59,24.94,2.54,9.11-2.18,15.06-7.86,17.48-16.9,.86-3.21,1.3-6.64,1.32-9.97,.12-20.75,.06-41.5,.06-62.25,0-.64,0-1.27,0-2.13Z"/></g></g></svg>