<?xml version="1.0" encoding="UTF-8"?><svg id="Layer_2" xmlns="http://www.w3.org/2000/svg" viewBox="0 0 154.68 154.76"><defs><style>.cls-1{fill:#1167aa;}</style></defs><g id="Layer_1-2"><path class="cls-1" d="m82.14,154.76h-9.67c-.39-.09-.77-.22-1.16-.25-16.9-1.37-31.91-7.45-44.59-18.69C6.88,118.22-1.95,95.99.36,69.59c1.44-16.49,7.91-31.04,18.96-43.38C34.41,9.36,53.38.58,76.01.02c14.64-.36,28.37,3.22,40.87,10.88,20.01,12.27,32.31,29.99,36.62,53.13.52,2.81.8,5.67,1.19,8.5v9.67c-.12.99-.26,1.98-.37,2.98-1.66,15.31-7.2,29.04-16.97,40.94-12.15,14.8-27.69,24-46.56,27.43-2.86.52-5.76.8-8.64,1.2Zm40.54-37.87c.03-.53.07-.97.07-1.41,0-10.27.02-20.55-.02-30.82,0-2.11-.16-4.23-.41-6.32-1.36-11.04-7.96-17.98-18.6-19.22-7.38-.86-13.75,1.24-18.39,7.41-.32.42-.64.84-1.26,1.65v-7.83h-18.74v56.55h18.75v-1.86c0-7.55,0-15.11,0-22.66,0-2.97,0-5.94.12-8.91.14-3.41,1.86-6.03,4.59-7.94,5.42-3.8,12.46-1.4,14.26,4.94.6,2.1.8,4.36.82,6.55.09,9.42.04,18.84.04,28.26,0,.53,0,1.07,0,1.63h18.76ZM36.07,60.24v56.63h18.77v-1.88c0-17.03,0-34.05,0-51.08,0-.76-.07-1.52.02-2.27.13-1.16-.36-1.44-1.46-1.43-4.94.05-9.87.02-14.81.02-.8,0-1.59,0-2.51,0Zm-1.18-17.44c.04,5.74,4.45,9.8,10.58,9.74,6.17-.06,10.65-4.2,10.6-9.8-.06-5.8-4.49-9.86-10.71-9.81-6.18.05-10.5,4.13-10.47,9.86Z"/></g></svg>