<?xml version="1.0" encoding="UTF-8"?><svg xmlns="http://www.w3.org/2000/svg" viewBox="0 0 189.76 203.16"><defs><style>.d{fill:#03254c;}</style></defs><g id="a"/><g id="b"><g id="c"><path class="d" d="M105.87,0c5.83,.61,11.67,1.09,17.47,1.86,16.33,2.17,32.38,5.55,46.94,13.63,4.62,2.56,8.83,6.07,12.74,9.67,4.85,4.47,6.71,10.46,6.71,17.02,0,39.52-.04,79.05,.02,118.57,.02,10.59-5.39,17.94-13.64,23.64-12.01,8.29-25.72,12.25-39.8,14.88-28.18,5.27-56.41,5.22-84.56-.37-13.27-2.64-26.13-6.51-37.53-14.15C4.94,178.52-.08,170.3,0,158.62,.29,120.62,.3,82.61,0,44.61c-.09-11.58,4.92-19.69,14.08-25.88,10.58-7.16,22.44-11.29,34.8-13.68,10.61-2.05,21.42-3.06,32.13-4.53C82.01,.38,82.99,.17,83.97,0c7.3,0,14.6,0,21.9,0Zm-16.76,67.62c23.6,.03,41.2-1.7,58.31-6.89,8.75-2.65,17.3-5.88,24.21-12.17,5.92-5.39,5.94-10.3,.15-15.76-5.26-4.96-11.74-7.86-18.43-10.3-15.76-5.75-32.16-8.06-48.83-8.7-23.14-.89-45.96,.85-67.98,8.7-7.09,2.53-13.92,5.65-19.31,11.13-4.56,4.63-4.57,9.13-.14,13.85,1.03,1.1,2.12,2.29,3.42,2.98,5.51,2.94,10.91,6.28,16.73,8.44,18.57,6.87,38.01,8.65,51.86,8.72Zm86.79,76.27c-25.26,14.77-52.81,18.42-80.99,18.42-28.24,0-55.84-3.7-81.24-18.56,0,5.39,.26,10.34-.07,15.26-.41,6.17,2.36,10.43,7.11,13.85,6.92,4.99,14.73,8.06,22.88,10.19,32.66,8.56,65.47,8.62,98.31,1.17,9.69-2.2,19.09-5.44,27.25-11.41,3.12-2.29,6.42-4.85,6.65-8.99,.37-6.52,.1-13.08,.1-19.93ZM13.66,103.82c0,4.65,.27,9.5-.07,14.31-.42,6.06,2.26,10.25,6.91,13.63,8.26,6,17.68,9.37,27.45,11.74,28.79,6.97,57.78,7.15,86.8,1.65,11.27-2.14,22.18-5.51,32.07-11.62,6.3-3.89,10.48-8.88,9.38-16.88-.18-1.29-.03-2.63-.03-3.95v-9.56c-.91,.39-1.3,.5-1.63,.71-14.28,8.94-30.23,12.87-46.62,15.46-17.5,2.76-35.09,3.14-52.72,1.62-13.54-1.16-26.96-3.28-39.8-7.89-7.29-2.62-14.29-6.02-21.75-9.22ZM175.81,62.68c-25.04,14.8-52.64,18.4-80.79,18.41-28.24,.01-55.92-3.6-81.36-18.6,0,5.25,.29,10.1-.07,14.9-.47,6.2,2.33,10.43,7.06,13.86,6.74,4.89,14.31,8.04,22.24,10.21,32.72,8.95,65.63,9.1,98.59,1.49,10-2.31,19.75-5.61,27.95-12.04,2.59-2.03,5.7-5.02,6.09-7.9,.91-6.61,.29-13.43,.29-20.33Z"/></g></g></svg>