<?xml version="1.0" encoding="UTF-8"?><svg xmlns="http://www.w3.org/2000/svg" viewBox="0 0 171.08 194.78"><defs><style>.d{fill:#03254c;}</style></defs><g id="a"/><g id="b"><g id="c"><path class="d" d="M171.05,89.84c0-11.61-.06-23.23,.03-34.84,.03-4.71-1.81-7.99-5.97-10.38-24.31-13.92-48.56-27.96-72.81-41.99-1.81-1.05-3.69-1.91-5.64-2.63h-2.29c-6.66,2.72-12.49,6.94-18.8,10.29L2.78,46.88C.79,48.82,0,51.26,0,53.94c-.01,28.88-.02,57.75,.02,86.63,0,4.3,1.77,7.53,5.69,9.78,24.92,14.25,49.79,28.6,74.65,42.96,3.63,2.1,7.01,1.86,10.57-.2,18.27-10.57,36.58-21.07,54.87-31.6,6.54-3.76,13.01-7.63,19.62-11.26,4.04-2.22,5.64-5.5,5.62-9.96-.05-16.82-.02-33.64-.02-50.45Zm-13.09,1.16c0,14.24-.03,28.49,.01,42.73,.01,3.78-1.34,6.56-4.76,8.44-5.6,3.07-11.08,6.35-16.62,9.54-15.49,8.92-31,17.81-46.47,26.76-3.02,1.75-5.88,1.95-8.96,.17-21.05-12.16-42.11-24.32-63.22-36.39-3.33-1.9-4.82-4.65-4.82-8.28-.03-24.46-.03-48.91-.02-73.37,0-2.27,.66-4.34,2.35-5.98l53.18-30.99c5.34-2.84,10.28-6.42,15.92-8.72h1.94c1.65,.62,3.24,1.34,4.77,2.23,20.54,11.88,41.08,23.77,61.67,35.56,3.52,2.02,5.08,4.8,5.05,8.79-.07,9.84-.02,19.67-.03,29.51Z"/></g></g></svg>