<?xml version="1.0" encoding="UTF-8"?><svg xmlns="http://www.w3.org/2000/svg" viewBox="0 0 205.74 198.86"><defs><style>.d{fill:#03254c;}</style></defs><g id="a"/><g id="b"><g id="c"><g><path class="d" d="M70.32,66.79c-2.52-.15-5.05-.08-7.57-.1-.49,0-.97,.07-1.48,.11v33.28c1.09,.04,2.12,.12,3.15,.12,1.33,0,2.65-.08,3.98-.1,3.2-.05,6.26-.7,9.1-2.21,3.64-1.94,6.04-4.9,7.25-8.84,.89-2.87,1.02-5.8,.57-8.76-1.22-7.94-6.86-13.01-14.99-13.5Z"/><path class="d" d="M170.86,0H34.88C15.62,0,0,15.62,0,34.88V163.99c0,19.26,15.62,34.88,34.88,34.88H170.86c19.26,0,34.88-15.62,34.88-34.88V34.88c0-19.26-15.62-34.88-34.88-34.88ZM103.96,94.5c-1.26,3.83-3.24,7.25-6,10.22-5.56,5.98-12.32,9.79-20.35,11.33-3.03,.58-6.09,.95-9.18,1.01-2.35,.05-4.71,.17-7.19,.26-.08,3.38-.02,6.79-.03,10.2,0,3.46,0,6.92,0,10.37v10.35h-20.15V51.79c.82-.06,1.61-.16,2.39-.17,2.39-.05,4.78-.07,7.18-.09,6.48-.07,12.96-.2,19.43-.18,5.2,.01,10.33,.67,15.3,2.26,4.68,1.5,8.92,3.79,12.37,7.34,2.84,2.93,4.86,6.37,6.21,10.22,.99,2.83,1.57,5.74,1.79,8.74,.36,4.99-.2,9.86-1.76,14.61Zm50.3,49.67c-3.9,2.43-8.22,3.67-12.75,4.2-1.97,.23-3.97,.39-5.95,.39-3.16,0-6.28-.37-9.36-1.13-4.21-1.04-8.23-2.55-12.07-4.56-.2-.11-.4-.23-.59-.33v-15.95c.25,.1,.43,.15,.59,.24,4.97,2.68,10.24,4.55,15.8,5.55,2.53,.46,5.08,.53,7.62,.03,1.21-.23,2.41-.57,3.43-1.28,2.07-1.47,2.58-3.26,2.12-5.99-.4-2.39-1.86-4.13-3.76-5.54-1.94-1.44-4.13-2.38-6.4-3.17-3.99-1.38-7.9-2.94-11.51-5.16-2.83-1.75-5.35-3.82-7.05-6.75-1.65-2.86-2.1-5.95-1.81-9.21,.19-2.13,.56-4.2,1.31-6.2,1.58-4.19,4.26-7.54,7.86-10.17,3.8-2.78,8.1-4.35,12.71-5.16,2.29-.4,4.6-.61,6.93-.6,5.13,.02,10.09,.98,14.86,2.89,1.51,.6,2.98,1.29,4.49,1.94v16.28c-1.28-.58-2.54-1.17-3.8-1.72-3.29-1.43-6.68-2.6-10.2-3.34-2.72-.58-5.46-.79-8.18-.09-1.57,.41-3,1.1-3.92,2.53-1.17,1.82-1.27,4.86,1.02,6.63,1.44,1.11,3.03,1.92,4.69,2.58,2.28,.91,4.59,1.73,6.88,2.62,3.89,1.5,7.58,3.37,10.75,6.14,3.45,3.02,5.62,6.77,6.34,11.3,.25,1.53,.43,3.1,.38,4.64-.25,7.93-3.61,14.15-10.41,18.38Z"/></g></g></g></svg>