<?xml version="1.0" encoding="UTF-8"?><svg xmlns="http://www.w3.org/2000/svg" viewBox="0 0 244.72 207.18"><defs><style>.d{fill:#03254c;}</style></defs><g id="a"/><g id="b"><g id="c"><g><path class="d" d="M244.72,107.9c-3.42,13.23-13.71,19.73-24.9,25.23-8.96,4.41-18.52,7.17-28.17,9.61-.84,.21-1.68,.45-2.76,.75,.69,2.1,1.34,4.11,2.02,6.11,2.87,8.38,4.96,16.94,5.75,25.79,.49,5.52,.18,10.97-1.54,16.29-3.19,9.84-11.48,15.38-21.77,14.49-9.19-.8-17.31-4.6-25.1-9.2-10.06-5.94-19.04-13.31-27.59-21.23-.7-.64-1.41-1.26-2.2-1.97-4.42,3.75-8.71,7.53-13.14,11.12-9.88,8-20.39,14.99-32.4,19.45-6.13,2.27-12.42,3.58-18.96,2.43-9.25-1.64-15.74-8.54-17.61-18.43-1.56-8.23-.84-16.38,1.2-24.38,1.76-6.92,4.08-13.7,6.17-20.54,.27-.89,.6-1.77,.9-2.63-5.62-2.1-11.13-3.93-16.45-6.21-8.23-3.54-16.06-7.78-22.05-14.72-8.2-9.5-8.15-20.87,.1-30.29,6.09-6.96,13.99-11.23,22.32-14.74,5.62-2.37,11.44-4.29,16.93-6.32-2.33-7.4-4.87-14.75-6.94-22.25-2.42-8.8-3.73-17.81-2.3-26.93C38.51,4.78,49.01-2.31,63.47,.67c8.15,1.68,15.45,5.37,22.44,9.7,10.61,6.58,20.1,14.57,29.06,23.22,.74,.72,1.51,1.41,2.47,2.3,.66-.57,1.31-1.1,1.92-1.66,9.06-8.31,18.6-16,29.26-22.18,7.73-4.48,15.76-8.28,24.8-9.44,13.99-1.8,24.43,6.19,26.42,20.28,1.44,10.17-.43,19.98-3.15,29.69-1.33,4.72-2.95,9.36-4.46,14.1,5.27,1.65,10.52,3.19,15.7,4.94,7.64,2.57,14.99,5.8,21.71,10.29,7.28,4.86,13,10.94,15.08,19.78v6.21Zm-126.23,31.98v.39c5.01,0,10.03-.05,15.04,.03,1.67,.03,2.81-.49,3.81-1.87,7.08-9.79,14.2-19.56,21.37-29.29,.98-1.33,1.11-2.35,.11-3.78-8.06-11.53-16.02-23.13-24.11-34.64-.55-.79-1.91-1.44-2.9-1.43-10.1,.06-20.21,.22-30.31,.51-1.06,.03-2.46,.78-3.1,1.65-7.46,10.11-14.78,20.32-22.18,30.47-.82,1.12-.92,2-.08,3.18,7.97,11.11,15.86,22.28,23.87,33.36,.54,.75,1.8,1.35,2.73,1.37,5.25,.13,10.5,.06,15.75,.06Zm-8.37-96.98c-11.21-10.95-22.92-20.94-36.78-28.06-4.67-2.4-9.58-4.28-14.9-4.74-6.06-.53-10.43,2.24-11.54,8.23-.83,4.47-1.17,9.18-.77,13.7,1,11.33,4.77,22,8.94,32.51,.47,1.2,1.1,1.46,2.33,1.27,11.77-1.84,23.55-3.6,35.32-5.43,.82-.13,1.85-.32,2.36-.88,5.01-5.43,9.94-10.94,15.04-16.6Zm-55.59,100.51c-4.14,10.41-7.61,20.97-8.56,32.17-.39,4.66-.48,9.39,1.25,13.92,1.65,4.34,4.61,7,9.29,7.49,4.71,.49,9.18-.66,13.5-2.33,12.8-4.95,23.64-13.02,34.04-21.76,2.42-2.03,4.73-4.18,7.07-6.26-4.94-5.58-9.67-10.97-14.47-16.28-.51-.56-1.47-.9-2.26-1-5.84-.74-11.72-1.22-17.54-2.1-7.38-1.12-14.72-2.53-22.32-3.86ZM124.45,42.95c4.71,5.46,9.15,10.66,13.69,15.78,.48,.54,1.52,.79,2.32,.83,13.29,.74,26.49,2.18,39.56,4.74,1.57,.31,2.27-.11,2.73-1.66,1.54-5.1,3.47-10.09,4.79-15.23,1.95-7.57,3.28-15.25,2.21-23.14-.92-6.77-4.26-10.78-10.06-11.66-4.78-.72-9.33,.58-13.74,2.23-9.49,3.54-17.89,9.03-25.85,15.16-5.35,4.11-10.41,8.6-15.65,12.95Zm60.82,90.97c10.32-2.33,20.5-5.22,29.99-9.97,4.66-2.33,9.24-5.08,13.22-8.4,8.26-6.9,8.17-14.11,.32-21.41-.76-.7-1.58-1.33-2.4-1.96-5.99-4.62-12.76-7.78-19.8-10.31-6.02-2.16-12.21-3.89-17.88-5.67-5.71,10.42-11.18,20.37-16.59,30.34-.25,.45-.25,1.26-.02,1.72,4.32,8.49,8.69,16.96,13.16,25.65Zm-59.51,32.74c10.82,10.12,22.16,19.61,35.8,25.8,3.99,1.81,8.42,2.93,12.77,3.59,5.51,.83,9.65-1.88,11.03-7.28,.99-3.86,1.41-8.02,1.19-12-.55-10.25-3.6-19.99-7.09-29.59-.43-1.17-.89-1.6-2.21-1.44-11.76,1.44-23.54,2.79-35.31,4.22-.64,.08-1.41,.37-1.83,.83-4.78,5.22-9.51,10.49-14.36,15.86Zm-77.3-35.5c.27-.25,.43-.33,.5-.46,4.62-8.7,9.26-17.38,13.79-26.12,.34-.65,.18-1.84-.19-2.55-3.87-7.48-7.87-14.89-11.73-22.37-.69-1.33-1.34-1.72-2.74-1.18-6.94,2.71-14.05,5.06-20.82,8.14-5.86,2.67-11.33,6.21-15.07,11.73-3.01,4.43-2.96,8.77,.17,13.07,1.16,1.6,2.49,3.13,4,4.4,9.39,7.9,20.68,11.85,32.08,15.34Zm129.89-57.33c-10.67-1.37-20.72-2.67-31.18-4.02,6.5,9.55,12.56,18.45,18.87,27.72,4.08-7.85,8.02-15.43,12.31-23.7Zm-91.27,64.98c-6.16-8.79-11.93-17.01-17.93-25.58-3.58,6.87-7.06,13.56-10.81,20.76,9.76,1.64,18.96,3.18,28.74,4.82Zm-27.42-63.49l9.64,18.5c5.43-7.65,10.65-15.02,16.19-22.84-8.84,1.48-17.13,2.88-25.83,4.34Zm115.39,60.7c-3.2-6.45-6.25-12.58-9.41-18.95-5.4,7.55-10.54,14.73-15.88,22.19,4.6-.47,8.86-.82,13.1-1.36,3.93-.5,7.83-1.2,12.19-1.89Zm-65.05,14.44c3.02,3.24,5.67,6.09,8.44,9.06,2.87-3.03,5.53-5.84,8.57-9.06h-17.01Zm7.25-100.28c-2.84,3-5.48,5.8-8.3,8.79h16.22c-2.79-3.09-5.23-5.8-7.92-8.79Z"/><path class="d" d="M122.33,85.36c10.69-.02,19.49,8.72,19.51,19.39,.02,10.62-8.8,19.44-19.48,19.44-10.68,0-19.49-8.76-19.52-19.41-.03-10.61,8.79-19.41,19.48-19.43Z"/></g></g></g></svg>