<?xml version="1.0" encoding="UTF-8"?><svg id="Layer_2" xmlns="http://www.w3.org/2000/svg" viewBox="0 0 244.79 266.27"><defs><style>.cls-1{fill:#fff;}</style></defs><g id="Layer_1-2"><g><g><path class="cls-1" d="M95,76.85c3.44,1.52,3.63,2.96,3.62,6.19-.02,5.84-1.69,10.19-6.35,14.02-4.52,3.71-5.37,10.69-2.77,15.02,5.39-3.9,10.69-7.89,16.16-11.62,2.56-1.74,3.79-4.03,4.36-6.91,1.33-6.75,2.88-13.45,3.98-20.24,.34-2.07,.05-4.64-.94-6.44-2.46-4.49-5.2-8.9-8.34-12.94,1.31-3.58,3.31-7.52,5.17-10.2,6.14-8.87,15.4-13.3,27.78-13.3,11.38,0,19.86,2.62,25.43,7.86,4.2,3.95,7.08,9.73,8.62,17.32,.95,4.65,5.04,7.98,9.79,7.98h16.68c6.49,0,11.21-6.07,9.72-12.39-3.37-14.27-10.03-25.77-20-34.5C175.2,5.57,158.46,0,137.67,0c-15.01,0-28.19,3.53-39.53,10.58-11.34,7.05-20.06,17.18-26.17,30.37-.59,1.29-1.95,4.62-2.48,5.94,4.72,6.77,9.91,15.02,14.98,21.57,2.79,3.6,6.37,6.54,10.53,8.39Z"/><path class="cls-1" d="M67.34,102.05c-1.82-.16-4.12-1.12-5.36-.35-5.15,3.21-10.1,6.79-14.81,10.61-.88,.71-.82,3.36-.29,4.79,.47,1.28,2.18,2.11,3.15,2.96,1.22-.34,1.99-.33,2.44-.71,4.67-3.92,9.44-7.73,13.81-11.97,1.07-1.04,.75-3.51,1.07-5.33Z"/><path class="cls-1" d="M57.31,97.78c1.5-2.31,.47-3.71-2.81-3.64-.55,.16-1.77,.21-2.6,.8-3.99,2.84-8.02,5.66-11.69,8.88-.79,.7-.67,3.3-.04,4.55,.89,1.75,2.86,1.88,4.52,.62,2.69-2.05,5.37-4.11,7.92-6.32,1.71-1.48,3.48-3.03,4.69-4.89Z"/><path class="cls-1" d="M70.39,116.04c1.56-1.67,.54-3.21-2.25-3.1-4.24,1.61-7.91,4.97-11.29,8.62-.45,.48,.1,2.32,.69,3.19,.38,.56,2.09,.96,2.52,.61,3.57-2.97,7.18-5.93,10.33-9.32Z"/><path class="cls-1" d="M47.9,92.8c.69-.59,.84-1.82,1.24-2.76-1.1-.15-2.52-.81-3.25-.35-3.04,1.89-5.91,4.05-8.72,6.28-.44,.35-.49,1.6-.26,2.28,.19,.57,1.05,.92,1.62,1.37,.67-.34,1.2-.52,1.62-.84,2.61-1.96,5.27-3.86,7.75-5.97Z"/><path class="cls-1" d="M43.91,86.04c-1.63-2.75-3.16-5.33-4.98-8.41-3.11,4.5-.3,7.69,.98,11.36,1.38-1.01,2.58-1.9,4-2.95Z"/><path class="cls-1" d="M162.85,146.92c-5.65,5.24-14.21,7.86-25.67,7.86-12.7,0-22-4.49-27.9-13.49-2.03-3.09-3.7-6.81-5.02-11.13h-.23c-1.21-4.07-1.42-5.13-1.83-6.93-1.55-6.77-1.53-10.18-1.92-15.84-3.63,2.68-4.95,5.38-8.43,7.74-2.51,1.69-5.49,.71-6.41-2.17-.86-2.68-1.08-5.74-.84-8.57,.38-4.55,2.93-8.3,6.3-11.16,3.21-2.72,3.81-6.16,3.89-9.87,.02-.99-.68-2.2-1.56-2.66-7.69-4.09-13.15-10.41-17.77-17.55-2.97-4.59-5.7-9.32-8.55-13.98-.57-.93-1.1-1.93-1.88-2.67-1.85-1.74-4-2.3-6.23-.69-2.4,1.74-2.92,4.74-1.62,7.08,3.39,6.11,6.74,12.25,9.91,18.48,.5,.98,.42,3.22-.19,3.6-1.89,1.18-2.49-.71-3.21-2.06-3.14-5.88-6.22-11.79-9.49-17.59-1.32-2.34-3.99-2.68-5.9-.79-2.24,2.22-2.77,4.85-1.27,7.65,1.76,3.27,3.61,6.5,5.42,9.74,1.23,2.19,2.61,4.32,3.62,6.61,.37,.85-.11,2.08-.2,3.13-1.04-.47-2.51-.66-3.04-1.46-1.8-2.73-3.26-5.68-4.87-8.54-1.22-2.16-2.48-4.31-3.72-6.47-4.26,2.85-4.99,6.25-2.47,10.11,1.73,2.65,3.31,5.41,5.02,8.07,.48,.74,1.43,1.81,2.12,2.35,1.68,1.31,3.45,2.53,5.18,3.78,5.77,.89,6.96,1.88,8.08,7.72,7.25-1.29,11.66,3.64,8.3,11.54,5.78,3.44,6.02,7.04,.78,12.56-1.15,1.21-2.48,2.25-3.83,3.24-1.65,1.19-1.64,2.1-.85,4.11h-.3c3.22,13,8.68,24.04,16.41,33.11,13.24,15.55,31.4,23.32,54.5,23.32,21.11,0,38.13-5.57,51.04-16.7,10.05-8.67,16.62-19.85,19.69-33.52,1.41-6.27-3.32-12.25-9.75-12.25h-16.94c-4.72,0-8.77,3.31-9.78,7.92-1.54,7.04-4.4,12.5-8.59,16.39Z"/></g><g><path class="cls-1" d="M17.22,239.26c0-.65-.09-1.22-.26-1.72-.17-.47-.45-.96-.82-1.46-.72-.8-1.54-1.38-2.46-1.76-1.1-.35-2.15-.52-3.17-.52-1.57,0-2.98,.34-4.22,1.01-1.27,.67-1.91,1.92-1.91,3.73s1.07,2.88,3.21,3.32l7.66,1.76c4.03,1,6.05,3.41,6.05,7.25,0,1.92-.52,3.5-1.57,4.74-1.05,1.22-2.38,2.08-4,2.58-1.59,.52-3.24,.78-4.93,.78-3.39,0-6.04-.77-7.96-2.32-1.89-1.52-2.84-3.88-2.84-7.1H3.36c0,1.49,.36,2.71,1.08,3.66,.72,.95,1.63,1.62,2.73,2.02,1.14,.42,2.35,.64,3.62,.64,1.05,0,2.12-.14,3.21-.41,1.07-.27,1.97-.73,2.69-1.38,.72-.65,1.08-1.56,1.08-2.73,0-.97-.16-1.73-.49-2.28-.32-.55-.91-1.01-1.76-1.38-.87-.4-2.02-.76-3.44-1.08l-4-.9c-1.22-.27-2.38-.66-3.47-1.16-1.17-.5-2.08-1.2-2.73-2.09-.7-.85-1.05-2.02-1.05-3.51s.32-2.79,.97-4.03c.62-1.22,1.64-2.23,3.06-3.03,1.37-.77,3.11-1.16,5.23-1.16,2.89,0,5.09,.46,6.61,1.38,1.49,.92,2.49,2,2.99,3.25,.15,.37,.34,.95,.56,1.72l.07,.22c.15,.67,.22,1.32,.22,1.94h-3.36Z"/><path class="cls-1" d="M41.42,258.24h-3.29v-12.77c0-1.49-.27-2.59-.82-3.29-.57-.72-1.58-1.08-3.03-1.08-1.54,0-2.84,.52-3.88,1.57-1.07,1.02-1.61,2.66-1.61,4.93v10.65h-3.29v-26.86h3.29v9.94l1.68-1.87c.35-.35,.83-.65,1.46-.9,.6-.25,1.48-.37,2.65-.37,1.25,0,2.34,.2,3.29,.6,1.02,.37,1.87,1.07,2.54,2.09,.67,1,1.01,2.37,1.01,4.11v13.26Z"/><path class="cls-1" d="M46.24,243.45c.62-1.52,1.64-2.79,3.06-3.81,1.39-.97,3.05-1.46,4.97-1.46s3.67,.49,5.04,1.46c1.37,1,2.39,2.27,3.06,3.81,.67,1.57,1.01,3.24,1.01,5s-.34,3.39-1.01,5.01c-.67,1.59-1.69,2.89-3.06,3.88-1.37,1-3.05,1.49-5.04,1.49s-3.64-.5-5-1.49c-1.42-1-2.44-2.29-3.06-3.88-.65-1.64-.97-3.31-.97-5.01s.34-3.44,1.01-5Zm2.88,8.37c.35,1.2,.93,2.17,1.76,2.91,.87,.82,2,1.23,3.4,1.23s2.59-.41,3.44-1.23c.87-.8,1.47-1.77,1.79-2.91,.32-1.12,.49-2.24,.49-3.36s-.16-2.28-.49-3.4c-.35-1.15-.95-2.1-1.79-2.88-.85-.77-1.99-1.16-3.44-1.16-2.04,0-3.5,.77-4.37,2.32-.87,1.59-1.31,3.3-1.31,5.12,0,1.07,.17,2.19,.52,3.36Z"/><path class="cls-1" d="M66.86,238.7h3.14v2.84c.27-.57,.71-1.15,1.31-1.72,.6-.52,1.29-.96,2.09-1.31,.75-.32,1.61-.49,2.58-.49,1.69,0,3.16,.51,4.41,1.53,1.22,1,2.15,2.29,2.8,3.88,.6,1.59,.9,3.24,.9,4.93s-.32,3.29-.97,4.93c-.62,1.64-1.59,2.99-2.91,4.03-1.29,1.05-2.83,1.57-4.59,1.57-1.17,0-2.17-.21-2.99-.64-.8-.4-1.61-1.12-2.43-2.17v9.86h-3.32v-27.27Zm3.59,13.56c.25,.82,.66,1.52,1.23,2.09,1.05,1.07,2.33,1.61,3.85,1.61,.97,0,1.85-.32,2.65-.97,.82-.67,1.43-1.61,1.83-2.8,.42-1.25,.64-2.65,.64-4.22,0-1.22-.12-2.24-.37-3.06-.27-.9-.63-1.61-1.08-2.13-.9-1.12-2.22-1.68-3.96-1.68-1.2,0-2.19,.37-2.99,1.12-.82,.77-1.39,1.77-1.72,2.99-.35,1.27-.52,2.63-.52,4.07,0,1.12,.15,2.12,.45,2.99Z"/><path class="cls-1" d="M91.29,231.46v3.74h-3.36v-3.74h3.36Zm0,7.32v19.46h-3.36v-19.46h3.36Z"/><path class="cls-1" d="M97.07,241.47h-2.69v-2.76h2.69v-3.06c0-.9,.11-1.64,.34-2.24,.17-.57,.49-1.06,.93-1.46,.7-.7,1.68-1.05,2.95-1.05l2.35,.19v2.95h-1.23c-.65,0-1.15,.14-1.49,.41-.37,.3-.56,.86-.56,1.68v2.58h3.29v2.76h-3.29v16.77h-3.29v-16.77Z"/><path class="cls-1" d="M118.89,238.7h3.55c-1.2,3.46-2.09,5.99-2.69,7.58-.42,1.15-.97,2.65-1.64,4.52-.3,.85-.52,1.47-.67,1.87l-.52,1.38c-.62,1.64-1.11,2.91-1.46,3.81-.82,2.17-1.51,3.81-2.05,4.93-.47,1.07-.93,1.83-1.38,2.28-.5,.5-1.02,.82-1.57,.97-.6,.15-1.48,.22-2.65,.22-.17,0-.63-.1-1.38-.3v-2.99c.52,.2,1.17,.3,1.94,.3,.6,0,1.06-.1,1.38-.3,.3-.22,.57-.57,.82-1.05l1.31-3.1-7.28-20.13h3.7l5.34,15.95,5.27-15.95Z"/><path class="cls-1" d="M135.17,241.35c.15-.87,.41-1.79,.78-2.76,.62-1.74,1.46-3.19,2.5-4.33,1.02-1.12,2.3-2,3.85-2.65,.72-.27,1.52-.5,2.39-.67,.8-.17,1.67-.26,2.61-.26,2.22,0,4.15,.42,5.79,1.27,1.72,.87,3.05,2,4,3.4,1,1.49,1.58,3.12,1.75,4.89h-5.64c-.75-3.11-2.64-4.67-5.68-4.67-2.22,0-3.95,.86-5.19,2.58-1.22,1.69-1.83,4.03-1.83,7.02l.07,.22c0,1.42,.25,2.81,.75,4.18,.47,1.34,1.21,2.44,2.2,3.29,.97,.82,2.15,1.23,3.55,1.23,3.34,0,5.38-1.68,6.12-5.04h5.64c-.32,1.89-.97,3.59-1.94,5.08-1,1.49-2.3,2.66-3.92,3.51-1.67,.9-3.56,1.34-5.68,1.34-2.37,0-4.47-.5-6.31-1.49-1.89-1.02-3.39-2.58-4.48-4.67-.55-1.05-.96-2.23-1.23-3.55-.3-1.32-.45-2.71-.45-4.18l.08-.78c0-1.17,.09-2.15,.26-2.95Z"/><path class="cls-1" d="M162.1,244.31c.4-1.29,1.03-2.43,1.9-3.4,.85-.97,1.91-1.73,3.17-2.28,1.25-.55,2.75-.82,4.52-.82,1.62,0,3.03,.24,4.22,.71,1.27,.5,2.33,1.21,3.17,2.13,.87,.95,1.54,2.04,2.02,3.29,.47,1.27,.71,2.73,.71,4.37,0,2.04-.39,3.83-1.16,5.38-.8,1.59-1.94,2.83-3.44,3.7-1.52,.92-3.36,1.38-5.53,1.38-2.34,0-4.28-.51-5.83-1.53-1.52-1-2.63-2.29-3.32-3.88-.72-1.59-1.08-3.27-1.08-5.04,0-1.32,.21-2.65,.64-4Zm13.33-.3c-.72-1.17-1.97-1.76-3.74-1.76s-3.1,.59-3.77,1.76c-.7,1.17-1.05,2.6-1.05,4.3s.35,3.05,1.05,4.22c.67,1.22,1.93,1.83,3.77,1.83s3.04-.61,3.74-1.83c.67-1.2,1.01-2.6,1.01-4.22s-.34-3.1-1.01-4.3Z"/><path class="cls-1" d="M185.59,231.38h5.27v26.86h-5.27v-26.86Z"/><path class="cls-1" d="M194.6,231.38h5.27v26.86h-5.27v-26.86Z"/><path class="cls-1" d="M203.49,253.05c0-1.99,.55-3.5,1.64-4.52,1.1-1.02,2.48-1.66,4.15-1.9l4.82-.71c1.15-.17,1.72-.66,1.72-1.46,0-1.62-1.05-2.43-3.14-2.43-1.05,0-1.87,.19-2.47,.56-.55,.4-.88,1.15-1.01,2.24h-5.04c.15-1.62,.55-2.94,1.2-3.96,.67-1.05,1.59-1.81,2.76-2.28,.55-.22,1.23-.41,2.05-.56,.8-.15,1.63-.22,2.5-.22,2.39,0,4.2,.34,5.42,1.01,1.24,.7,2.03,1.48,2.35,2.35,.32,.82,.49,1.62,.49,2.39v10.79c0,.87,.08,1.57,.22,2.09s.46,.86,.93,1.01v.78c-3.74,.42-5.7,.1-5.9-.97-.15-.57-.22-1.03-.22-1.38-.55,.6-1.12,1.1-1.72,1.49-.62,.4-1.29,.73-2.02,1.01-.72,.25-1.54,.37-2.47,.37-.97,0-1.94-.17-2.91-.52-.92-.32-1.71-.95-2.35-1.87-.67-.87-1.01-1.98-1.01-3.32Zm12.33-4.52c-.45,.37-1.08,.65-1.91,.82l-2.5,.52c-.77,.17-1.41,.47-1.9,.9-.5,.45-.75,1.12-.75,2.02,0,.72,.24,1.27,.71,1.64,.47,.4,1.08,.6,1.83,.6,.37,0,.68-.04,.93-.11,.27-.05,.63-.16,1.08-.34,.67-.27,1.26-.7,1.76-1.27,.5-.62,.75-1.36,.75-2.2v-2.58Z"/><path class="cls-1" d="M225.48,231.38h5.23v9.56c.85-1.15,1.72-1.95,2.61-2.43,.92-.47,2.02-.71,3.29-.71,1.72,0,3.19,.45,4.41,1.34,1.29,.97,2.24,2.19,2.84,3.66,.62,1.49,.93,3.26,.93,5.3,0,2.27-.37,4.21-1.12,5.83-.77,1.64-1.78,2.85-3.03,3.62-1.29,.8-2.69,1.2-4.18,1.2-.55,0-1.11-.06-1.68-.19-.62-.12-1.18-.3-1.68-.52-.95-.42-1.77-1.18-2.47-2.28l-.07,2.47h-5.08v-26.86Zm12.89,12.66c-.7-1.15-1.84-1.72-3.44-1.72-2.96,0-4.45,2.14-4.45,6.42,0,1.59,.4,2.94,1.2,4.03s1.93,1.64,3.4,1.64,2.6-.62,3.32-1.87c.67-1.25,1.01-2.61,1.01-4.11,0-1.79-.35-3.26-1.05-4.41Z"/></g></g></g></svg>