<?xml version="1.0" encoding="UTF-8"?><svg id="Layer_2" xmlns="http://www.w3.org/2000/svg" viewBox="0 0 560.68 160.3"><defs><style>.cls-1{fill:#1167aa;}</style></defs><g id="Layer_1-2"><g><path class="cls-1" d="m489.53,84.51c-110.54,23.71-221.07,47.46-331.67,70.89-6.93,1.47-16.06,5.12-23.16,4.89-5.69-.19-11.67-6.73-16.2-10.1-12.49-9.3-24.96-18.63-37.44-27.96,136.67-12.78,272.52-25.49,408.37-38.19.03.16.06.31.09.47Z"/><path class="cls-1" d="m145.02,8.2c20.42.2,31.91,25.7,17.41,40.63-15.07,15.53-41.89,4.52-41.62-17.11.16-13.04,11.07-23.64,24.21-23.51Zm-.13,41.33c9.05,0,16.59-7.79,16.62-17.18.06-14.57-17.71-23.28-28.2-12.31-9.88,10.34-3.53,29.49,11.57,29.49Z"/><path class="cls-1" d="m404.45,26.77h20.36V9.18h7.22v46.08h-7.11v-21.28h-20.25v21.34h-7.07V9.15h6.86v17.62Z"/><path class="cls-1" d="m209.35,32.15v23.14h-7.16V9.18c9.09,0,22.6-3.14,27.17,7.16,3.77,8.51-.28,16.32-8.07,20.1,4.01,6.2,7.98,12.34,11.99,18.55-5.29,1.38-7.44.45-10.65-3.76-4.61-6.04-8.47-12.87-12.65-19.22-.21.05-.42.1-.63.15Zm.2-16.47v14.68c5.86,0,14.24.46,13.83-7.79-.39-7.69-8.12-6.89-13.83-6.89Z"/><path class="cls-1" d="m363.08,14.55c-6.72-5.82-15.77-10.23-24.51-6.3-7.85,3.54-12.43,12.06-11.89,20.52,1.27,19.84,23.05,25.39,36.35,12.68,0,9.06-.83,11.62-10.59,13.87-6.92,1.6-13.83.28-19.91-3.32-11.65-6.9-16.34-19.86-12.58-32.79,2.75-9.45,10.39-16.22,19.95-18.34,5.53-1.22,24.59-1.33,23.23,8.04-.24,1.66-.04,3.37-.04,5.64Z"/><path class="cls-1" d="m533.85,31.41v23.84h-7.19V9.27h6.97v19.98c.21.09.41.19.62.28,4.35-5.25,8.67-10.51,12.96-15.81,3.96-4.9,6.45-4.69,12.66-4.69-2.99,3.69-5.98,7.39-9,11.06-1.94,2.36-7.78,7.31-7.92,10.36-.15,3.32,5.54,8.49,7.49,11.11,3.43,4.61,6.81,9.25,10.23,13.87-7.46,0-8.8.49-13.23-5.57-3.78-5.17-7.54-10.36-11.31-15.53-.59-.81-1.24-1.59-2.28-2.91Z"/><path class="cls-1" d="m.45,44.63c6.61,4.68,21.99,8,23.15-3.9,1.03-10.51-15.42-11.36-20.73-18.1C-2.42,15.9-.11,5.83,7.46,1.94,12.07-.42,18.05-.46,22.94.93c6.13,1.75,5.89,3.77,5.89,9.49-5.16-1.87-23.59-7.7-21.32,4.62,1.49,8.03,16.82,9.26,21.36,15.89,4.96,7.24,1.65,17.92-5.46,22.48-4.55,2.92-24.64,4.38-23.01-4.35.24-1.3.04-2.68.04-4.43Z"/><path class="cls-1" d="m467.7,55.22V9.16h24.89v6.35h-17.5v11.3h16.97v6.63h-16.92v15.3h17.44v6.48h-24.89Z"/><path class="cls-1" d="m66.33,55.31V8.74c10.53.52,26.28-2.44,28.17,11.6,1.89,14.08-9.6,16.35-20.72,16.86v18.11h-7.45Zm7.37-39.61v14.65c5.96,0,13.78.54,13.62-7.62-.16-7.88-7.81-7.03-13.62-7.03Z"/><path class="cls-1" d="m277.76,55.32h-7.28V15.67h-10.61v-6.53h28.37v6.42h-10.48v39.77Z"/></g></g></svg>