<?xml version="1.0" encoding="UTF-8"?><svg id="Layer_2" xmlns="http://www.w3.org/2000/svg" viewBox="0 0 203.51 204.57"><defs><style>.cls-1{fill:#1167aa;}</style></defs><g id="Layer_1-2"><path class="cls-1" d="m0,102.09C.05,45.42,45.74-.24,102.57,0c56.51.24,101.88,47.12,100.92,104.08-.91,54.55-44.85,100.26-101.09,100.48C45.5,204.79-.05,158.95,0,102.09Zm87.03-48.09c-16.3.16-32.44,1.63-48.15,6.29-5.64,1.67-8.6,6.77-7.03,12.09,1.56,5.29,6.85,7.7,12.51,6.37,7.48-1.76,15.03-3.51,22.65-4.41,17.82-2.1,35.63-1.38,53.3,1.8,14.64,2.63,28.68,6.96,41.63,14.48,4.76,2.77,10.42,1.24,13.11-3.38,2.71-4.64,1.24-10.6-3.67-13.2-5.84-3.09-11.75-6.17-17.9-8.55-21.35-8.29-43.68-11.28-66.46-11.5Zm-3.31,35.19c-3.49.19-8.02.34-12.53.71-9.17.75-18.18,2.41-26.98,5.13-4.57,1.42-6.86,5.73-5.54,10.06,1.31,4.31,5.56,6.29,10.25,5.22,6.63-1.51,13.28-3.11,20.01-3.98,17.46-2.27,34.72-.77,51.73,3.71,10.34,2.73,20.14,6.74,29.34,12.25,5,3,11,.13,12.01-5.57.58-3.3-1.06-6.46-4.54-8.53-22.42-13.32-46.93-18.59-73.75-19.01Zm65.69,54.84c-.11-2.37-1.28-4.2-3.4-5.49-16.65-10.14-35.71-15.09-55.1-15.81-10.43-.39-20.8.48-31.07,2.26-5.22.9-22.64,2.31-16.21,12.08,2.59,3.93,6.97,2.67,10.84,1.94,5.44-1.03,10.89-2.04,16.39-2.67,10.92-1.26,22-1.24,32.88.43,9.54,1.46,18.84,4.19,27.56,8.35,4.7,2.24,18.11,10.81,18.12-1.08Z"/></g></svg>