<?xml version="1.0" encoding="UTF-8"?><svg id="Layer_2" xmlns="http://www.w3.org/2000/svg" viewBox="0 0 303.46 236.29"><defs><style>.cls-1{letter-spacing:-.04em;}.cls-1,.cls-2,.cls-3,.cls-4,.cls-5,.cls-6,.cls-7{font-size:32.74px;}.cls-2{letter-spacing:-.04em;}.cls-8{letter-spacing:-.02em;}.cls-8,.cls-9,.cls-10{font-size:18.01px;}.cls-3{letter-spacing:-.02em;}.cls-11{font-family:Garamond, Garamond;}.cls-11,.cls-12{fill:#fff;}.cls-13{font-size:16.96px;letter-spacing:-.02em;}.cls-4{letter-spacing:.02em;}.cls-5{letter-spacing:0em;}.cls-6{letter-spacing:.12em;}.cls-7{letter-spacing:-.06em;}.cls-9{letter-spacing:.02em;}.cls-10{letter-spacing:0em;}</style></defs><g id="Layer_1-2"><g><g><polygon class="cls-12" points="126.99 40.09 126.99 39.42 175.3 108.53 175.3 40.09 222.13 40.09 222.13 0 85.57 0 85.57 0 81.33 0 81.33 68.07 85.57 74.07 85.57 40.09 126.99 40.09"/><polygon class="cls-12" points="217.83 135.66 217.83 169.46 173.8 169.46 126.99 103.15 126.99 169.46 126.99 171.58 126.99 173.7 222.07 173.7 222.07 141.67 217.83 135.66"/></g><text class="cls-11" transform="translate(.07 226.25)"><tspan class="cls-4" x="0" y="0">T</tspan><tspan class="cls-7" x="20.75" y="0">R</tspan><tspan class="cls-1" x="39.25" y="0">US</tspan><tspan class="cls-3" x="75.45" y="0">C</tspan><tspan class="cls-5" x="95.56" y="0">EL</tspan><tspan class="cls-3" x="135.73" y="0">LO </tspan><tspan class="cls-2" x="186.19" y="0">N</tspan><tspan class="cls-5" x="210.09" y="0">A</tspan><tspan class="cls-4" x="232.23" y="0">I</tspan><tspan class="cls-6" x="244.45" y="0">R</tspan><tspan class="cls-13" x="268.81" y="0"> </tspan><tspan class="cls-10" x="272.69" y="0">L</tspan><tspan class="cls-9" x="282.99" y="0">L</tspan><tspan class="cls-8" x="293.64" y="0">P</tspan></text></g></g></svg>