<?xml version="1.0" encoding="UTF-8"?><svg xmlns="http://www.w3.org/2000/svg" viewBox="0 0 176.23 155.53"><defs><style>.d{fill:#03254c;}</style></defs><g id="a"/><g id="b"><g id="c"><g><path class="d" d="M176.23,17.17v121.15c-.09,.21-.21,.41-.26,.63-2.43,10.8-9.61,16.56-20.66,16.56-29.37,0-58.73,0-88.1,0-15.77,0-31.55,.04-47.32-.01-11.15-.04-19.84-8.48-19.85-19.47C-.02,97.2-.02,58.37,.09,19.54c0-2.72,.66-5.66,1.82-8.12C5.57,3.66,12.01,0,20.54,0,65.57,0,110.59,0,155.62,0c.63,0,1.26-.01,1.89,.04,7.94,.63,13.71,4.49,17.05,11.75,.78,1.69,1.13,3.58,1.68,5.38ZM5.94,46.72c-.03,.59-.09,1.09-.09,1.59,0,28.96-.01,57.92,0,86.88,0,8.64,5.84,14.47,14.48,14.48,45.19,.01,90.38,.01,135.57-.01,1.42,0,2.89-.13,4.25-.5,6.48-1.76,10.24-6.98,10.24-14.12,0-28.85,0-57.69,0-86.54v-1.78H5.94Zm164.46-5.99c0-6.91,.02-13.62,0-20.33-.02-8.73-5.84-14.56-14.58-14.56-45.14-.01-90.28-.01-135.43,0-8.72,0-14.51,5.86-14.54,14.61-.02,6.19,0,12.39,0,18.58,0,.55,.06,1.1,.1,1.7H170.4Z"/><path class="d" d="M96.03,67.1c-.68,3.26-1.41,6.85-2.17,10.43-3.07,14.56-6.14,29.12-9.21,43.69-.09,.45-.19,.9-.31,1.34-.49,1.86-1.93,2.89-3.49,2.5-1.67-.41-2.55-1.83-2.18-3.71,.71-3.59,1.48-7.18,2.24-10.76,3.08-14.62,6.17-29.23,9.25-43.85,.29-1.37,.8-2.52,2.26-2.96,1.87-.57,3.64,.91,3.61,3.32Z"/><path class="d" d="M55.22,94.2c4.24,3.61,8.33,7.1,12.43,10.58,1.18,1,2.39,1.97,3.53,3.02,1.42,1.3,1.61,3.05,.55,4.27-1.11,1.28-2.8,1.41-4.29,.15-6.13-5.17-12.25-10.37-18.33-15.61-1.75-1.51-1.72-3.34,.05-4.87,6.03-5.2,12.11-10.37,18.19-15.51,1.57-1.32,3.34-1.22,4.42,.11,1.06,1.3,.8,3.04-.76,4.38-4.56,3.92-9.16,7.81-13.74,11.72-.61,.52-1.21,1.04-2.04,1.75Z"/><path class="d" d="M120.99,94.16c-3.75-3.2-7.4-6.31-11.05-9.42-1.57-1.34-3.16-2.65-4.71-4.02-1.54-1.36-1.8-3.08-.73-4.38,1.08-1.32,2.84-1.41,4.42-.08,6.04,5.1,12.07,10.23,18.06,15.39,1.93,1.66,1.93,3.45,.01,5.1-6,5.16-12.03,10.28-18.07,15.39-1.58,1.33-3.29,1.26-4.42-.07-1.07-1.26-.84-3.06,.71-4.39,4.78-4.11,9.6-8.18,14.4-12.27,.43-.36,.83-.75,1.37-1.24Z"/><path class="d" d="M12.28,23.42c-.02-5.05,4.09-9.19,9.14-9.22,4.99-.03,9.21,4.17,9.22,9.18,.01,4.99-4.18,9.22-9.17,9.24-5.01,.02-9.16-4.14-9.18-9.19Zm9.23-3.38c-1.76-.05-3.31,1.41-3.4,3.2-.09,1.86,1.39,3.47,3.24,3.53,1.72,.05,3.33-1.46,3.42-3.2,.1-1.81-1.45-3.48-3.27-3.53Z"/><path class="d" d="M87.17,23.64c-.04,5.08-4.13,9.12-9.22,9.09-5.07-.03-9.14-4.14-9.11-9.22,.03-5.05,4.17-9.14,9.23-9.11,5.06,.03,9.13,4.16,9.09,9.24Zm-5.84,.02c.04-1.89-1.44-3.41-3.32-3.41-1.8,0-3.28,1.45-3.32,3.25-.04,1.82,1.35,3.31,3.16,3.39,1.91,.08,3.44-1.34,3.48-3.22Z"/><path class="d" d="M40.57,23.48c0-5.09,4.07-9.15,9.16-9.15,5.07,0,9.17,4.1,9.16,9.16,0,5.05-4.13,9.18-9.18,9.17-5.07,0-9.15-4.11-9.15-9.19Zm5.84-.04c-.02,1.9,1.47,3.41,3.35,3.39,1.8-.02,3.27-1.49,3.3-3.29,.02-1.88-1.49-3.39-3.37-3.37-1.83,.02-3.25,1.44-3.28,3.27Z"/></g></g></g></svg>