<?xml version="1.0" encoding="UTF-8"?><svg xmlns="http://www.w3.org/2000/svg" viewBox="0 0 595.03 224.19"><defs><style>.d{fill:#ffade1;}.e{fill:#ffdeb5;}.f{fill:#ffbfc7;}.g{fill:#abe9dd;}.h{fill:#c0ade7;}.i{fill:#6fcfeb;}</style></defs><g id="a"/><g id="b"><g id="c"><g><path class="h" d="M20.05,147.6c-4.69,0-9.2-9.13-13.54-27.39C2.17,101.95,0,81.45,0,58.71c0-2.34,1-4.17,3-5.48,2-1.31,3.82-1.96,5.48-1.96s3,.52,4.03,1.55c1.04,1.03,1.55,2.38,1.55,4.03,0,21.5,3.65,42.17,10.96,62.02,1.1-1.65,2.82-4.99,5.17-10.03,2.34-5.03,4.55-8.71,6.62-11.06,2.07-2.34,4.55-3.51,7.44-3.51s5.93,2.14,9.1,6.41c3.17,4.27,5.89,8.86,8.17,13.75,2.27,4.89,3.55,7.48,3.83,7.75,3.72-11.58,5.58-22.33,5.58-32.25l-1.24-31.42c-.14-2.07,.83-3.82,2.89-5.27,2.07-1.45,4.06-2.17,6-2.17,4,0,6,7.79,6,23.36v11.37c0,18.47-2.83,34.94-8.48,49.41-3.03,8.27-6.82,12.4-11.37,12.4-2.62,0-5.03-1.69-7.23-5.06-2.21-3.37-4.69-8.17-7.44-14.37-2.76-6.2-4.89-10.47-6.41-12.82l-6.2,12.2c-2.34,4.83-4.13,8.3-5.37,10.44-1.24,2.14-2.96,4.27-5.17,6.41-2.21,2.14-4.48,3.2-6.82,3.2Z"/><path class="i" d="M135.19,51.47c9.92,0,18.09,4.75,24.5,14.26,6.41,9.51,9.61,20.91,9.61,34.21s-3.28,24.64-9.82,34.01c-6.55,9.37-15.23,14.06-26.05,14.06s-19.53-4.79-26.15-14.37c-6.62-9.58-9.92-20.22-9.92-31.94,0-15.02,3.03-27.01,9.1-35.97,6.48-9.51,16.05-14.26,28.73-14.26Zm-2.48,16.95c-5.79,0-10.54,3.03-14.26,9.1-3.72,6.07-5.58,12.47-5.58,19.22,0,10.48,2.07,18.47,6.2,23.98,4.13,5.51,8.82,8.27,14.06,8.27,9.37,0,15.37-4.06,17.99-12.2,1.1-3.86,1.65-8.68,1.65-14.47,0-22.6-6.69-33.9-20.05-33.9Z"/><path class="g" d="M208.58,117.62l.21,21.29c0,2.48-1.14,4.75-3.41,6.82-2.27,2.07-4.51,3.1-6.72,3.1-3.17,0-5.17-2.48-6-7.44-.14-1.1-.69-11.19-1.65-30.28-.96-19.09-2.83-34.07-5.58-44.96-1.24-5.24-1.86-8.34-1.86-9.3,0-4.55,2.76-6.82,8.27-6.82,2.34,0,4.2,.9,5.58,2.69,1.37,1.79,2.24,3.62,2.58,5.48,.34,1.86,.65,4.38,.93,7.54,.27,3.17,.48,5.17,.62,6,2.89-6.89,7.23-12.06,13.02-15.5,5.79-3.44,12.13-5.17,19.02-5.17,11.3,0,16.95,2.89,16.95,8.68,0,2.89-1,5.2-3,6.92-2,1.72-4.31,2.58-6.93,2.58-11.71,0-19.98,3.72-24.81,11.16-4.83,7.44-7.24,19.85-7.24,37.21Z"/><path class="h" d="M310.91,51.06l-.21-39.9c0-7.44,2.38-11.16,7.13-11.16s7.41,2.07,7.96,6.2c.28,1.79,.62,12.61,1.04,32.45,.41,19.85,1.06,38.45,1.96,55.81,.89,17.37,1.34,33.56,1.34,48.58,0,4.13-3.1,6.2-9.3,6.2-4.14,0-6.2-2.89-6.2-8.68-5.93,4.69-12.96,7.03-21.09,7.03-10.33,0-18.71-3.86-25.12-11.58-6.41-7.72-9.61-17.23-9.61-28.53s2.31-21.88,6.92-31.73c4.62-9.85,11.82-16.92,21.6-21.19,6.06-2.62,11.92-3.93,17.57-3.93,2.07,0,4.06,.14,6,.41Zm1.14,28.22c-1.03-2.96-2.24-5.24-3.62-6.82-1.38-1.58-2.86-2.55-4.45-2.89-1.59-.34-3.48-.52-5.68-.52s-4.89,.83-8.06,2.48c-3.17,1.65-5.86,4.34-8.06,8.06-4.41,7.44-6.61,15.26-6.61,23.46s1.62,14.88,4.86,20.05c3.23,5.17,7.85,7.75,13.85,7.75s10.71-2.96,14.16-8.89c3.44-5.92,5.17-13.5,5.17-22.74,0-10.34-.52-16.98-1.55-19.95Z"/><path class="e" d="M341.6,13.95c.34-5.17,1.17-8.54,2.48-10.13,1.31-1.58,3.41-2.38,6.31-2.38,5.93,0,8.89,2.41,8.89,7.24,0,3.72-.31,13.44-.93,29.15-.62,15.71-.93,29.77-.93,42.17s.48,22.4,1.45,29.97c1.65,13.23,4,19.85,7.03,19.85s5.3-2.13,6.82-6.41c.69-1.65,1.79-3.13,3.31-4.44,1.51-1.31,3.44-1.96,5.79-1.96,4.82,0,7.24,4.07,7.24,12.2,0,4.41-2.38,8.79-7.13,13.13-4.75,4.34-9.48,6.51-14.16,6.51s-8.44-.79-11.27-2.38c-2.83-1.58-5.1-3.96-6.82-7.13-1.73-3.17-3.1-6.23-4.14-9.2-1.03-2.96-1.76-6.58-2.17-10.85-.83-6.89-1.42-17.95-1.76-33.18-.34-15.23-.52-29.77-.52-43.62s.17-23.36,.52-28.53Z"/><path class="d" d="M531.06,51.06c-6.89,0-13.23,1.72-19.02,5.17-5.79,3.45-10.13,8.61-13.02,15.5-.14-.83-.35-2.82-.62-6-.28-3.17-.59-5.68-.93-7.54-.34-1.86-1.21-3.69-2.58-5.48-1.38-1.79-3.24-2.69-5.58-2.69-5.51,0-8.27,2.27-8.27,6.82,0,.97,.62,4.07,1.86,9.3,2.75,10.89,4.62,25.88,5.58,44.96,.82,16.24,1.34,25.91,1.56,29.13,1.63-2.96,4.74-4.98,8.36-4.98,3.23,0,6.08,1.61,7.81,4.06,0-.13,.05-.26,.05-.4l-.21-21.29c0-17.36,2.41-29.77,7.24-37.21,4.82-7.44,13.09-11.16,24.81-11.16,2.62,0,4.93-.86,6.93-2.58,2-1.72,3-4.03,3-6.93,0-5.79-5.65-8.68-16.95-8.68Z"/><path class="i" d="M513,180.25l1.54,6.75c.26,1.23,0,2.34-.8,3.35-.79,1.01-1.74,1.64-2.83,1.87-1.61,.34-2.62-.28-3.03-1.88-5.23-20.37-8.08-31.65-8.55-33.85-.47-2.19-.94-4.88-1.43-8.08-.12-1.19,.5-1.93,1.85-2.21,3.41-.73,5.64,.24,6.69,2.92,.5,1.38,.83,2.48,1.01,3.32l.92,6.17,4.63,21.65Z"/><path class="i" d="M542.79,143.68l-4.48-20.44c-.82-3.82,0-5.98,2.43-6.51,2.44-.52,4.02,.25,4.76,2.31,.34,.89,1.7,6.4,4.09,16.53,2.39,10.13,4.77,19.6,7.13,28.4,2.36,8.81,4.37,17.06,6.02,24.76,.45,2.12-.91,3.52-4.09,4.2-2.12,.45-3.5-.8-4.13-3.77-2.53,3.05-5.87,5.02-10.04,5.92-5.3,1.13-10.02,.07-14.15-3.18-4.13-3.25-6.82-7.78-8.06-13.57-1.24-5.79-1.22-11.47,.07-17.03,1.29-5.56,4.2-9.97,8.75-13.23,2.82-2.01,5.68-3.32,8.58-3.94,1.06-.23,2.1-.38,3.12-.45Zm3.68,14.34c-.85-1.4-1.72-2.44-2.6-3.1-.88-.66-1.75-.99-2.6-1-.85,0-1.84,.12-2.97,.36-1.13,.24-2.42,.96-3.86,2.16-1.45,1.2-2.53,2.87-3.25,5.02-1.45,4.3-1.72,8.55-.82,12.75,.9,4.21,2.46,7.46,4.69,9.75,2.23,2.3,4.88,3.11,7.95,2.46,3.07-.66,5.17-2.7,6.28-6.11,1.12-3.42,1.17-7.49,.16-12.23-1.13-5.3-2.13-8.65-2.98-10.06Z"/><path class="i" d="M569.11,152.4c1.84-2.34,4.24-3.83,7.2-4.47,2.96-.63,5.91-.71,8.86-.22,2.95,.49,4.61,1.61,4.99,3.37,.19,.91,0,1.7-.58,2.38-.58,.68-1.12,1.08-1.63,1.18-.51,.11-.91,.18-1.21,.22-.3,.04-1.47-.23-3.51-.8-2.05-.57-3.84-.68-5.39-.35-1.55,.33-2.78,1-3.71,2.01-.93,1.01-1.23,2.26-.91,3.75,.32,1.49,1.2,2.53,2.63,3.12,1.44,.59,3.79,.85,7.07,.79,3.28-.06,5.87,.29,7.79,1.05,1.92,.76,3.2,2.66,3.85,5.7,.95,4.43,.46,7.81-1.47,10.14-1.93,2.33-4.54,3.86-7.85,4.56s-6.21,.86-8.73,.45c-2.51-.41-3.96-1.52-4.35-3.33-.45-2.08,.37-3.34,2.45-3.79,.53-.11,1.79,0,3.76,.37,1.97,.36,3.85,.35,5.64-.03,1.79-.38,3.02-1.24,3.71-2.59,.69-1.34,.87-2.76,.55-4.26s-1.16-2.44-2.53-2.85c-1.37-.4-3.35-.55-5.95-.44-2.6,.11-4.53,.05-5.81-.18-3.47-.6-5.68-3.11-6.63-7.53-.67-3.15-.09-5.89,1.75-8.24Z"/><path class="f" d="M464.08,116.18c-2.21-2.07-3.86-3.1-4.96-3.1-2.48,0-6.61,2.72-12.4,8.17-5.79,5.44-12.96,8.17-21.5,8.17-2.34,0-4.21-.76-5.58-2.27-4.41-3.72-7.37-11.44-8.89-23.15,7.72,0,13.51-.27,17.37-.83,8.96-1.24,16.12-4.79,21.5-10.65,5.37-5.86,8.06-11.92,8.06-18.19s-3.31-11.54-9.92-15.81c-6.62-4.27-13.58-6.41-20.88-6.41-11.58,0-20.05,4.13-25.43,12.4-5.37,8.27-8.06,18.12-8.06,29.56s1.79,21.91,5.37,31.42c5.65,15.44,14.47,23.15,26.46,23.15,1.62,0,3.3-.17,5-.43-.05-.5-.15-.99-.15-1.51,0-8.1,6.56-14.66,14.66-14.66,4.2,0,7.97,1.79,10.64,4.63,7.98-6.35,12.02-11.26,12.02-14.7,0-1.79-1.11-3.72-3.31-5.79Zm-49.61-40.93c3.72-5.92,8.2-8.89,13.44-8.89,7.72,0,11.58,2.89,11.58,8.68,0,9.51-9.65,14.26-28.94,14.26,1.24-7.3,2.55-11.99,3.93-14.06Z"/><path class="i" d="M508.69,205.09c1.35,3.72,.33,6.2-3.07,7.44-1.43,.52-4.64-2.28-9.65-8.39-5.01-6.11-10.26-10.32-15.76-12.62-.19,.7-1.31,2.88-3.34,6.53-2.03,3.66-3.22,5.86-3.58,6.62l4.33,11.88c.27,1.25,.41,2.23,.4,2.95,0,.72-.32,1.51-.95,2.36-.63,.86-1.66,1.55-3.08,2.07-2.14,.78-3.68-.14-4.64-2.75-2.68-7.36-7.16-18.67-13.43-33.92-6.27-15.25-11.65-29.01-16.12-41.28-.55-1.5-.37-2.92,.54-4.24,.91-1.32,2.04-2.22,3.38-2.71,1.82-.66,3.35,.08,4.58,2.23l7.66,21.02c.93,2.54,1.66,4.42,2.2,5.66,.54,1.24,1.31,3.11,2.31,5.61,2.06,5.17,4.49,10.97,7.28,17.39,1.66-2.58,3.61-6.4,5.84-11.48,2.23-5.07,3.77-9.28,4.61-12.64,1.21-5.55,3-8.76,5.37-9.63,.63-.23,1.32-.3,2.07-.22,2.01,.34,3.25,1.15,3.71,2.42,.46,1.27,.51,3.13,.16,5.59-1.06,5.95-2.72,11.62-4.97,17.01,5.01,2.66,10.63,7.03,16.88,13.09,3.87,3.97,6.29,7.3,7.28,10Z"/></g></g></g></svg>