<?xml version="1.0" encoding="UTF-8"?><svg xmlns="http://www.w3.org/2000/svg" viewBox="0 0 205.74 198.86"><defs><style>.d{fill:#03254c;}</style></defs><g id="a"/><g id="b"><g id="c"><g><path class="d" d="M151.91,110.92c0-6.77-.02-13.53,.02-20.3,0-1.21-.35-1.76-1.61-2.05-7.5-1.68-15.45,1.87-18.96,8.68-3.89,7.53-3.91,15.45-2,23.47,2.35,9.86,10.63,14.95,20.56,12.85,1.5-.32,2.05-.94,2.03-2.54-.09-6.7-.04-13.41-.04-20.11Z"/><path class="d" d="M171.13,0H34.61C15.5,0,0,15.5,0,34.61V164.25c0,19.11,15.5,34.61,34.61,34.61H171.13c19.11,0,34.61-15.5,34.61-34.61V34.61c0-19.11-15.5-34.61-34.61-34.61ZM104.21,146.87c-4.18,0-8.35-.04-12.53,.02-1.46,.02-2.26-.49-2.9-1.84-5.43-11.49-10.93-22.94-16.41-34.4-.16-.33-.33-.66-.7-1.38-1.41,3.09-2.67,5.87-3.95,8.64-4.14,8.95-8.32,17.88-12.42,26.85-.71,1.55-1.67,2.12-3.37,2.07-4.05-.11-8.1-.03-12.15-.04-.65,0-1.31-.11-2.29-.2,2.09-4.05,4.02-7.8,5.96-11.54,6.04-11.61,12.11-23.2,18.09-34.83,.34-.66,.38-1.77,.05-2.43-6.68-13.34-13.44-26.64-20.18-39.95-.83-1.64-1.67-3.27-2.48-4.91-.56-1.11-.21-1.68,1.05-1.68,4.81,0,9.62-.05,14.43,.07,.66,.02,1.59,.76,1.89,1.4,5.26,11.01,10.44,22.05,15.64,33.09,.24,.5,.53,.98,.92,1.71,1.44-3.14,2.76-6.07,4.11-8.98,3.95-8.48,7.93-16.94,11.84-25.45,.62-1.35,1.44-1.89,2.91-1.86,3.99,.07,7.97,.02,11.96,.03,.6,0,1.21,.1,2.13,.17-.33,.82-.51,1.4-.78,1.92-7.05,13.58-14.04,27.19-21.24,40.68-1.34,2.52-1.32,4.37,0,6.87,7.52,14.26,14.85,28.61,22.23,42.94,1.54,3,1.5,3.04-1.82,3.04Zm63.04-4.07c-10.52,4.67-21.42,6.56-32.72,3.45-10.89-3-17.56-10.36-20.47-21.14-2.83-10.46-2.65-20.85,1.98-30.78,5.22-11.22,14.22-17.49,26.5-18.87,3.04-.34,6.16-.05,9.47-.05v-2.37c0-6.45,.07-12.91-.04-19.36-.03-1.89,.64-2.38,2.41-2.33,3.79,.11,7.59,.11,11.39,0,1.74-.05,2.24,.49,2.24,2.25-.06,25.88-.05,51.76-.02,77.64,0,3.22,.26,6.44,.26,9.67,0,.65-.47,1.66-.99,1.9Z"/></g></g></g></svg>