<?xml version="1.0" encoding="UTF-8"?><svg xmlns="http://www.w3.org/2000/svg" viewBox="0 0 41.12 91.32"><defs><style>.d{fill:#03254c;}</style></defs><g id="a"/><g id="b"><g id="c"><g><path class="d" d="M21.09,0s-1.43,8.27,14.54,21.96l-7.7,8.84S6.83,17.4,21.09,0Z"/><path class="d" d="M18.51,91.32s1.43-8.27-14.54-21.96l7.7-8.84s21.1,13.4,6.84,30.8Z"/><path class="d" d="M13.21,12.53s-10.32,13.53-1.42,22.69l7.69,7.93c1.59,1.7,3.27,3.3,5.04,4.82,4.04,3.47,12.53,12.25,10.41,19.2,0,0,12.46-12.01,2.05-22.69L19.52,27.22s-6.5-7.12-6.32-14.68Z"/><path class="d" d="M5.04,25.38s-10.32,13.53-1.42,22.69l14.06,13.26s10.68,10.41,9.08,18.69c0,0,12.46-12.01,2.05-22.69L11.36,40.07s-6.5-7.12-6.32-14.68Z"/></g></g></g></svg>